<svg xmlns="http://www.w3.org/2000/svg" viewBox="0 0 415.033 121.751"><g data-name="Layer 2"><g data-name="Layer 1"><path d="M144.775 97.929a.331.331 0 0 1 .351-.35h2.14a.331.331 0 0 1 .35.35v23.155a.331.331 0 0 1-.35.351h-2.14a.331.331 0 0 1-.35-.35zm17.577 0a.331.331 0 0 1 .351-.35h2.631a.474.474 0 0 1 .526.35l5.333 17.893h.14V97.929a.331.331 0 0 1 .352-.35h1.859a.332.332 0 0 1 .351.35v23.155a.332.332 0 0 1-.351.351h-2.49a.475.475 0 0 1-.527-.35l-5.438-17.893h-.176v17.893a.332.332 0 0 1-.35.35h-1.86a.331.331 0 0 1-.35-.35zm26.279 0a.331.331 0 0 1 .35-.35h9.017a.332.332 0 0 1 .351.35v1.93a.332.332 0 0 1-.35.35h-6.316a.186.186 0 0 0-.21.21V108a.186.186 0 0 0 .21.21h5.473a.331.331 0 0 1 .35.35v1.93a.331.331 0 0 1-.35.351h-5.473a.186.186 0 0 0-.21.21v10.035a.331.331 0 0 1-.351.35h-2.14a.331.331 0 0 1-.351-.35zm23.366 20.278c-.35-1.052-.456-1.93-.456-8.7s.106-7.649.456-8.701c.737-2.28 2.526-3.544 5.228-3.544s4.526 1.263 5.227 3.544c.351 1.052.456 1.93.456 8.7s-.105 7.65-.456 8.701c-.701 2.28-2.526 3.544-5.227 3.544s-4.491-1.263-5.228-3.544zm7.754-.807c.21-.701.28-1.227.28-7.893s-.07-7.193-.28-7.894a2.44 2.44 0 0 0-2.526-1.684 2.397 2.397 0 0 0-2.491 1.684c-.246.701-.316 1.228-.316 7.894s.07 7.192.316 7.893a2.397 2.397 0 0 0 2.49 1.685 2.44 2.44 0 0 0 2.527-1.685zm17.122-7.893c0-6.772.105-7.649.456-8.701.737-2.28 2.526-3.544 5.227-3.544 3.298 0 5.158 1.86 5.543 5.193.036.21-.034.386-.245.42l-1.965.387a.325.325 0 0 1-.42-.281c-.246-1.965-1.158-3.052-2.878-3.052a2.44 2.44 0 0 0-2.526 1.684c-.245.701-.316 1.228-.316 7.894s.07 7.192.316 7.893a2.79 2.79 0 0 0 5.123 0c.21-.666.315-1.227.315-6.104a.186.186 0 0 0-.21-.21h-2.35a.332.332 0 0 1-.351-.351v-1.86a.332.332 0 0 1 .35-.35h4.947a.332.332 0 0 1 .351.35v1.017c0 6.386-.105 7.263-.456 8.315-.702 2.28-2.526 3.544-5.227 3.544s-4.491-1.263-5.228-3.544c-.35-1.052-.456-1.93-.456-8.7zm34.382 11.928a.353.353 0 0 1-.385-.245l-2.982-9.964a9.203 9.203 0 0 1-.983.035h-1.438a.186.186 0 0 0-.21.21v9.613a.331.331 0 0 1-.352.351h-2.14a.331.331 0 0 1-.35-.35V97.928a.331.331 0 0 1 .35-.35h4.175c4.21 0 6.456 1.823 6.456 6.876 0 3.192-1.053 5.122-2.912 6.07l3.333 10.56c.07.175 0 .35-.176.35zm-.701-16.98c0-3.228-1.052-4.246-3.579-4.246h-1.508a.186.186 0 0 0-.21.21v8.07a.186.186 0 0 0 .21.21h1.508c2.456.001 3.579-.982 3.579-4.245zm20.77-6.526c.07-.21.175-.35.386-.35h2.105a.382.382 0 0 1 .386.35l5.017 23.155a.29.29 0 0 1-.316.351h-2.105a.36.36 0 0 1-.386-.35l-1.052-5.228h-5.298l-1.052 5.228c-.036.21-.14.35-.351.35h-2.105a.29.29 0 0 1-.316-.35zm3.544 15.472l-2.035-10.385h-.105l-2.176 10.385zm17.964 8.034a.331.331 0 0 1-.351-.35V97.928a.331.331 0 0 1 .35-.35h4.175c4.21 0 6.456 1.894 6.456 7.156 0 5.158-2.28 7.157-6.455 7.157h-1.474a.186.186 0 0 0-.21.211v8.982a.331.331 0 0 1-.352.35zm7.788-16.7c0-3.368-1.017-4.526-3.614-4.526h-1.473a.186.186 0 0 0-.21.21v8.631a.186.186 0 0 0 .21.21h1.473c2.597.001 3.614-1.122 3.614-4.525zm16.666-6.806a.331.331 0 0 1 .35-.35h2.14a.331.331 0 0 1 .351.35v9.753a.186.186 0 0 0 .211.21h5.122a.186.186 0 0 0 .21-.21V97.93a.331.331 0 0 1 .351-.35h2.14a.332.332 0 0 1 .352.35v23.155a.332.332 0 0 1-.352.351h-2.14a.331.331 0 0 1-.35-.35v-10.35a.186.186 0 0 0-.211-.211h-5.122a.186.186 0 0 0-.21.21v10.35a.331.331 0 0 1-.351.351h-2.14a.331.331 0 0 1-.351-.35zm25.962 0a.331.331 0 0 1 .351-.35h2.14a.331.331 0 0 1 .35.35v23.155a.331.331 0 0 1-.35.351h-2.14a.331.331 0 0 1-.35-.35zm17.191 11.578c0-6.772.106-7.754.422-8.736a4.886 4.886 0 0 1 5.122-3.509c3.122 0 5.017 1.684 5.332 5.333a.326.326 0 0 1-.28.421l-2 .386c-.21.035-.386-.07-.386-.28-.176-2.14-.982-3.193-2.631-3.193a2.213 2.213 0 0 0-2.386 1.649c-.21.666-.316 1.333-.316 7.929s.105 7.262.316 7.929a2.213 2.213 0 0 0 2.386 1.649c1.649 0 2.455-1.053 2.63-3.193 0-.21.176-.316.387-.28l2 .385a.325.325 0 0 1 .28.421c-.315 3.649-2.21 5.333-5.332 5.333a4.886 4.886 0 0 1-5.123-3.508c-.315-.983-.42-1.965-.42-8.736zm29.05 12.244c-3.613 0-5.438-2.035-5.613-6.14 0-.21.07-.35.28-.386l2.07-.386a.304.304 0 0 1 .387.316c.14 2.947 1.088 4 2.912 4s2.666-.877 2.666-4.105c0-2.737-.526-3.754-2.42-4.49l-1.439-.562c-3.263-1.263-4.175-2.877-4.175-6.56 0-4.07 1.754-6.176 5.333-6.176s5.227 1.965 5.403 5.684a.354.354 0 0 1-.316.386l-1.965.316a.282.282 0 0 1-.386-.28c-.07-2.352-.842-3.51-2.666-3.51-1.754 0-2.596 1.053-2.596 3.474 0 2.456.56 3.298 2.49 4.035l1.44.561c3.051 1.228 4.14 2.807 4.14 6.771-.001 4.807-1.51 7.052-5.544 7.052z" fill="#212946"/><g><path d="M156.779 0v28.564h.445l.555-1.334L167.783 0h11.67l-11.004 26.897 12.448 54.794h-11.67l-8.335-35.566-.334-1.667h-.333l-.667 1.667-2.779 6.669v28.897h-12.004V0zm45.368 0h12.003v81.691h-12.003zm35.604 0h12.003v70.577h15.894V81.69H237.75zm47.498 0h12.003v70.577h15.894V81.69H285.25zm47.497 0H360.2v12.337h-15.45v21.45h11.115v13.116H344.75v22.451h15.45v12.337h-27.454zm70.283 81.691l-6.224-34.455h-3.223v34.455h-12.004V0h12.004c14.337 0 20.45 8.114 20.45 23.563 0 8.113-2.112 15.449-6.668 18.56l7.669 39.568zm-9.447-45.569a8.335 8.335 0 0 0 5.668-1.778c1.778-1.556 3.223-4.557 3.223-10.336s-1.445-8.892-3.223-10.448a8.2 8.2 0 0 0-5.668-1.668z" fill="#212946"/></g><g fill="#212946"><path d="M90.84 48.504a18.17 18.17 0 0 0 12.852-31.021L77.996 43.179a18.09 18.09 0 0 0 12.845 5.325z"/><path d="M72.665 30.327a18.17 18.17 0 0 1 31.027-12.844L121.175 0H0v121.175l77.996-77.996a18.089 18.089 0 0 1-5.331-12.852z"/><path d="M60.587 60.587L60.587 121.175 121.175 121.175 60.587 60.587z"/></g><g><path d="M144.775 97.929a.331.331 0 0 1 .351-.35h2.14a.331.331 0 0 1 .35.35v23.155a.331.331 0 0 1-.35.351h-2.14a.331.331 0 0 1-.35-.35zm17.577 0a.331.331 0 0 1 .351-.35h2.631a.474.474 0 0 1 .526.35l5.333 17.893h.14V97.929a.331.331 0 0 1 .352-.35h1.859a.332.332 0 0 1 .351.35v23.155a.332.332 0 0 1-.351.351h-2.49a.475.475 0 0 1-.527-.35l-5.438-17.893h-.176v17.893a.332.332 0 0 1-.35.35h-1.86a.331.331 0 0 1-.35-.35zm26.279 0a.331.331 0 0 1 .35-.35h9.017a.332.332 0 0 1 .351.35v1.93a.332.332 0 0 1-.35.35h-6.316a.186.186 0 0 0-.21.21V108a.186.186 0 0 0 .21.21h5.473a.331.331 0 0 1 .35.35v1.93a.331.331 0 0 1-.35.351h-5.473a.186.186 0 0 0-.21.21v10.035a.331.331 0 0 1-.351.35h-2.14a.331.331 0 0 1-.351-.35zm23.366 20.278c-.35-1.052-.456-1.93-.456-8.7s.106-7.649.456-8.701c.737-2.28 2.526-3.544 5.228-3.544s4.526 1.263 5.227 3.544c.351 1.052.456 1.93.456 8.7s-.105 7.65-.456 8.701c-.701 2.28-2.526 3.544-5.227 3.544s-4.491-1.263-5.228-3.544zm7.754-.807c.21-.701.28-1.227.28-7.893s-.07-7.193-.28-7.894a2.44 2.44 0 0 0-2.526-1.684 2.397 2.397 0 0 0-2.491 1.684c-.246.701-.316 1.228-.316 7.894s.07 7.192.316 7.893a2.397 2.397 0 0 0 2.49 1.685 2.44 2.44 0 0 0 2.527-1.685zm17.122-7.893c0-6.772.105-7.649.456-8.701.737-2.28 2.526-3.544 5.227-3.544 3.298 0 5.158 1.86 5.543 5.193.036.21-.034.386-.245.42l-1.965.387a.325.325 0 0 1-.42-.281c-.246-1.965-1.158-3.052-2.878-3.052a2.44 2.44 0 0 0-2.526 1.684c-.245.701-.316 1.228-.316 7.894s.07 7.192.316 7.893a2.79 2.79 0 0 0 5.123 0c.21-.666.315-1.227.315-6.104a.186.186 0 0 0-.21-.21h-2.35a.332.332 0 0 1-.351-.351v-1.86a.332.332 0 0 1 .35-.35h4.947a.332.332 0 0 1 .351.35v1.017c0 6.386-.105 7.263-.456 8.315-.702 2.28-2.526 3.544-5.227 3.544s-4.491-1.263-5.228-3.544c-.35-1.052-.456-1.93-.456-8.7zm34.382 11.928a.353.353 0 0 1-.385-.245l-2.982-9.964a9.203 9.203 0 0 1-.983.035h-1.438a.186.186 0 0 0-.21.21v9.613a.331.331 0 0 1-.352.351h-2.14a.331.331 0 0 1-.35-.35V97.928a.331.331 0 0 1 .35-.35h4.175c4.21 0 6.456 1.823 6.456 6.876 0 3.192-1.053 5.122-2.912 6.07l3.333 10.56c.07.175 0 .35-.176.35zm-.701-16.98c0-3.228-1.052-4.246-3.579-4.246h-1.508a.186.186 0 0 0-.21.21v8.07a.186.186 0 0 0 .21.21h1.508c2.456.001 3.579-.982 3.579-4.245zm20.77-6.526c.07-.21.175-.35.386-.35h2.105a.382.382 0 0 1 .386.35l5.017 23.155a.29.29 0 0 1-.316.351h-2.105a.36.36 0 0 1-.386-.35l-1.052-5.228h-5.298l-1.052 5.228c-.036.21-.14.35-.351.35h-2.105a.29.29 0 0 1-.316-.35zm3.544 15.472l-2.035-10.385h-.105l-2.176 10.385zm17.964 8.034a.331.331 0 0 1-.351-.35V97.928a.331.331 0 0 1 .35-.35h4.175c4.21 0 6.456 1.894 6.456 7.156 0 5.158-2.28 7.157-6.455 7.157h-1.474a.186.186 0 0 0-.21.211v8.982a.331.331 0 0 1-.352.35zm7.788-16.7c0-3.368-1.017-4.526-3.614-4.526h-1.473a.186.186 0 0 0-.21.21v8.631a.186.186 0 0 0 .21.21h1.473c2.597.001 3.614-1.122 3.614-4.525zm16.666-6.806a.331.331 0 0 1 .35-.35h2.14a.331.331 0 0 1 .351.35v9.753a.186.186 0 0 0 .211.21h5.122a.186.186 0 0 0 .21-.21V97.93a.331.331 0 0 1 .351-.35h2.14a.332.332 0 0 1 .352.35v23.155a.332.332 0 0 1-.352.351h-2.14a.331.331 0 0 1-.35-.35v-10.35a.186.186 0 0 0-.211-.211h-5.122a.186.186 0 0 0-.21.21v10.35a.331.331 0 0 1-.351.351h-2.14a.331.331 0 0 1-.351-.35zm25.962 0a.331.331 0 0 1 .351-.35h2.14a.331.331 0 0 1 .35.35v23.155a.331.331 0 0 1-.35.351h-2.14a.331.331 0 0 1-.35-.35zm17.191 11.578c0-6.772.106-7.754.422-8.736a4.886 4.886 0 0 1 5.122-3.509c3.122 0 5.017 1.684 5.332 5.333a.326.326 0 0 1-.28.421l-2 .386c-.21.035-.386-.07-.386-.28-.176-2.14-.982-3.193-2.631-3.193a2.213 2.213 0 0 0-2.386 1.649c-.21.666-.316 1.333-.316 7.929s.105 7.262.316 7.929a2.213 2.213 0 0 0 2.386 1.649c1.649 0 2.455-1.053 2.63-3.193 0-.21.176-.316.387-.28l2 .385a.325.325 0 0 1 .28.421c-.315 3.649-2.21 5.333-5.332 5.333a4.886 4.886 0 0 1-5.123-3.508c-.315-.983-.42-1.965-.42-8.736zm29.05 12.244c-3.613 0-5.438-2.035-5.613-6.14 0-.21.07-.35.28-.386l2.07-.386a.304.304 0 0 1 .387.316c.14 2.947 1.088 4 2.912 4s2.666-.877 2.666-4.105c0-2.737-.526-3.754-2.42-4.49l-1.439-.562c-3.263-1.263-4.175-2.877-4.175-6.56 0-4.07 1.754-6.176 5.333-6.176s5.227 1.965 5.403 5.684a.354.354 0 0 1-.316.386l-1.965.316a.282.282 0 0 1-.386-.28c-.07-2.352-.842-3.51-2.666-3.51-1.754 0-2.596 1.053-2.596 3.474 0 2.456.56 3.298 2.49 4.035l1.44.561c3.051 1.228 4.14 2.807 4.14 6.771-.001 4.807-1.51 7.052-5.544 7.052z" fill="#212946"/><g><path d="M156.779 0v28.564h.445l.555-1.334L167.783 0h11.67l-11.004 26.897 12.448 54.794h-11.67l-8.335-35.566-.334-1.667h-.333l-.667 1.667-2.779 6.669v28.897h-12.004V0zm45.368 0h12.003v81.691h-12.003zm35.604 0h12.003v70.577h15.894V81.69H237.75zm47.498 0h12.003v70.577h15.894V81.69H285.25zm47.497 0H360.2v12.337h-15.45v21.45h11.115v13.116H344.75v22.451h15.45v12.337h-27.454zm70.283 81.691l-6.224-34.455h-3.223v34.455h-12.004V0h12.004c14.337 0 20.45 8.114 20.45 23.563 0 8.113-2.112 15.449-6.668 18.56l7.669 39.568zm-9.447-45.569a8.335 8.335 0 0 0 5.668-1.778c1.778-1.556 3.223-4.557 3.223-10.336s-1.445-8.892-3.223-10.448a8.2 8.2 0 0 0-5.668-1.668z" fill="#212946"/></g><g fill="#212946"><path d="M90.84 48.504a18.17 18.17 0 0 0 12.852-31.021L77.996 43.179a18.09 18.09 0 0 0 12.845 5.325z"/><path d="M72.665 30.327a18.17 18.17 0 0 1 31.027-12.844L121.175 0H0v121.175l77.996-77.996a18.089 18.089 0 0 1-5.331-12.852z"/><path d="M60.587 60.587L60.587 121.175 121.175 121.175 60.587 60.587z"/></g></g></g></g></svg>