<svg xmlns="http://www.w3.org/2000/svg" viewBox="0 0 415.033 121.751">
  <title>killer-logo</title>
  <g id="Layer_2" data-name="Layer 2">
    <g id="Layer_1-2" data-name="Layer 1">
      <g>
        <g>
          <g>
            <path d="M144.7752,97.929a.3313.3313,0,0,1,.3508-.3508h2.14a.3313.3313,0,0,1,.3508.3508v23.1555a.3313.3313,0,0,1-.3508.3508h-2.14a.3313.3313,0,0,1-.3508-.3508Z" style="fill: #212946"/>
            <path d="M162.3524,97.929a.3313.3313,0,0,1,.3508-.3508h2.6312a.4743.4743,0,0,1,.526.3508l5.3329,17.8926h.1406V97.929a.3313.3313,0,0,1,.3508-.3508h1.8592a.3316.3316,0,0,1,.3512.3508v23.1555a.3316.3316,0,0,1-.3512.3508h-2.4907a.4748.4748,0,0,1-.5264-.3508l-5.4381-17.893h-.1752v17.893a.3316.3316,0,0,1-.3512.3508h-1.8592a.3313.3313,0,0,1-.3508-.3508Z" style="fill: #212946"/>
            <path d="M188.6309,97.929a.3313.3313,0,0,1,.3508-.3508h9.0166a.3315.3315,0,0,1,.3508.3508v1.93a.3317.3317,0,0,1-.3508.3508H191.683a.1861.1861,0,0,0-.2106.21v7.5783a.1862.1862,0,0,0,.2106.2106h5.4731a.3313.3313,0,0,1,.3508.3508v1.93a.3313.3313,0,0,1-.3508.3508H191.683a.1862.1862,0,0,0-.2106.2106v10.034a.3313.3313,0,0,1-.3508.3508h-2.14a.3313.3313,0,0,1-.3508-.3508Z" style="fill: #212946"/>
            <path d="M211.9974,118.2075c-.3508-1.0524-.4563-1.93-.4563-8.7008s.1055-7.6484.4563-8.7008c.7367-2.28,2.5261-3.5435,5.2274-3.5435s4.5258,1.2631,5.2274,3.5435c.3508,1.0524.4563,1.93.4563,8.7008s-.1055,7.6484-.4563,8.7008c-.7016,2.28-2.5257,3.5435-5.2274,3.5435S212.734,120.488,211.9974,118.2075Zm7.7535-.8071c.2106-.7016.2807-1.2276.2807-7.8937s-.07-7.1925-.2807-7.8941a2.44,2.44,0,0,0-2.5261-1.6839,2.3971,2.3971,0,0,0-2.4911,1.6839c-.2453.7016-.3158,1.228-.3158,7.8941s.07,7.1921.3158,7.8937a2.397,2.397,0,0,0,2.4911,1.6843A2.44,2.44,0,0,0,219.7509,117.4Z" style="fill: #212946"/>
            <path d="M236.8726,109.5067c0-6.7712.1055-7.6484.4563-8.7008.7367-2.28,2.5261-3.5435,5.2274-3.5435,3.2978,0,5.1573,1.8592,5.5432,5.1924.035.21-.035.3858-.2453.4209l-1.9651.3858a.3254.3254,0,0,1-.4209-.2807c-.2457-1.9647-1.1575-3.0521-2.8769-3.0521a2.44,2.44,0,0,0-2.5261,1.6839c-.2453.7016-.3158,1.228-.3158,7.8941s.07,7.1921.3158,7.8937a2.7894,2.7894,0,0,0,5.1223,0c.2106-.6666.3158-1.2276.3158-6.1046a.1858.1858,0,0,0-.21-.21h-2.3509a.3317.3317,0,0,1-.3508-.3508v-1.86a.3315.3315,0,0,1,.3508-.3508h4.9471a.3315.3315,0,0,1,.3508.3508v1.0174c0,6.3854-.1055,7.2626-.4563,8.315-.7016,2.28-2.5261,3.5435-5.2274,3.5435s-4.4908-1.2631-5.2274-3.5435C236.9782,117.1551,236.8726,116.2779,236.8726,109.5067Z" style="fill: #212946"/>
            <path d="M271.2555,121.4353a.3535.3535,0,0,1-.3858-.2457l-2.982-9.9639a9.2034,9.2034,0,0,1-.9823.035h-1.4387a.1862.1862,0,0,0-.2106.2106v9.6131a.3313.3313,0,0,1-.3508.3508h-2.14a.3313.3313,0,0,1-.3508-.3508V97.929a.3313.3313,0,0,1,.3508-.3508h4.175c4.21,0,6.4554,1.8241,6.4554,6.8763,0,3.1927-1.0524,5.1223-2.912,6.07l3.3328,10.56c.07.1752,0,.3508-.1752.3508Zm-.7016-16.9808c0-3.2277-1.0524-4.2451-3.5785-4.2451h-1.5087a.1861.1861,0,0,0-.2106.21v8.07a.1861.1861,0,0,0,.2106.21h1.5087C269.431,108.7,270.5538,107.7173,270.5538,104.4545Z" style="fill: #212946"/>
            <path d="M291.3242,97.929c.07-.2106.1752-.3508.3858-.3508h2.1052a.3824.3824,0,0,1,.3858.3508l5.0168,23.1555a.29.29,0,0,1-.3158.3508h-2.1048a.36.36,0,0,1-.3858-.3508l-1.0528-5.2274h-5.2975l-1.0524,5.2274c-.0354.2106-.1406.3508-.3508.3508h-2.1052a.29.29,0,0,1-.3158-.3508Zm3.5435,15.472-2.0347-10.3848h-.1055l-2.1753,10.3848Z" style="fill: #212946"/>
            <path d="M312.8315,121.4353a.3313.3313,0,0,1-.3508-.3508V97.929a.3313.3313,0,0,1,.3508-.3508h4.175c4.21,0,6.4554,1.8946,6.4554,7.1571,0,5.1573-2.28,7.1571-6.4554,7.1571h-1.4737a.1862.1862,0,0,0-.2106.2106v8.9815a.3313.3313,0,0,1-.3508.3508Zm7.7886-16.7c0-3.3683-1.0174-4.5258-3.6136-4.5258h-1.4737a.1861.1861,0,0,0-.2106.21V109.05a.1862.1862,0,0,0,.2106.2106h1.4737C319.6027,109.261,320.62,108.1385,320.62,104.7352Z" style="fill: #212946"/>
            <path d="M337.2859,97.929a.3313.3313,0,0,1,.3508-.3508h2.14a.3313.3313,0,0,1,.3508.3508v9.7532a.1862.1862,0,0,0,.2106.2106H345.46a.1862.1862,0,0,0,.2106-.2106V97.929a.3313.3313,0,0,1,.3508-.3508h2.14a.3316.3316,0,0,1,.3512.3508v23.1555a.3316.3316,0,0,1-.3512.3508h-2.14a.3313.3313,0,0,1-.3508-.3508v-10.35a.1862.1862,0,0,0-.2106-.2106H340.338a.1862.1862,0,0,0-.2106.2106v10.35a.3313.3313,0,0,1-.3508.3508h-2.14a.3313.3313,0,0,1-.3508-.3508Z" style="fill: #212946"/>
            <path d="M363.2482,97.929a.3313.3313,0,0,1,.3508-.3508h2.14a.3313.3313,0,0,1,.3508.3508v23.1555a.3313.3313,0,0,1-.3508.3508h-2.14a.3313.3313,0,0,1-.3508-.3508Z" style="fill: #212946"/>
            <path d="M380.4392,109.5067c0-6.7712.1055-7.7535.4213-8.7359a4.8861,4.8861,0,0,1,5.1223-3.5084c3.1222,0,5.0168,1.6839,5.3326,5.3326a.3257.3257,0,0,1-.2807.4213l-2,.3858c-.21.035-.3858-.07-.3858-.2807-.1756-2.14-.9823-3.1927-2.6312-3.1927a2.2135,2.2135,0,0,0-2.3859,1.6489c-.21.6666-.3158,1.3331-.3158,7.9291s.1055,7.2622.3158,7.9291a2.2135,2.2135,0,0,0,2.3859,1.6489c1.6489,0,2.4556-1.0528,2.6312-3.1927,0-.2106.1756-.3158.3858-.2807l2,.3858a.3254.3254,0,0,1,.2807.4209c-.3158,3.649-2.21,5.3329-5.3326,5.3329a4.8861,4.8861,0,0,1-5.1223-3.5084C380.5447,117.26,380.4392,116.2779,380.4392,109.5067Z" style="fill: #212946"/>
            <path d="M409.4895,121.751c-3.6136,0-5.4381-2.0347-5.6133-6.14,0-.2106.07-.3508.2807-.3858l2.07-.3862a.3043.3043,0,0,1,.3858.3158c.1406,2.9474,1.0878,4,2.9123,4s2.6663-.8772,2.6663-4.1049c0-2.7364-.5264-3.7541-2.421-4.4908l-1.4383-.5614c-3.2628-1.2631-4.175-2.8769-4.175-6.5606,0-4.07,1.754-6.1747,5.3326-6.1747s5.2278,1.9647,5.403,5.6834a.3542.3542,0,0,1-.3158.3862l-1.9647.3158a.2823.2823,0,0,1-.3858-.2807c-.07-2.3509-.8422-3.5084-2.6663-3.5084-1.7544,0-2.5962,1.0524-2.5962,3.4734,0,2.4556.5611,3.2978,2.4907,4.0345l1.4387.5614c3.0521,1.228,4.14,2.8068,4.14,6.7712C415.033,119.5056,413.5243,121.751,409.4895,121.751Z" style="fill: #212946"/>
          </g>
          <g>
            <path d="M156.7789,0V28.5644h.4449l.5557-1.3341L167.7826,0h11.67L168.4491,26.8973l12.4481,54.7941h-11.67l-8.3355-35.5663-.3335-1.6671h-.3335l-.6671,1.6671-2.7785,6.6689V81.6914H144.7752V0Z" style="fill: #212946"/>
            <path d="M202.1467,0H214.15V81.6914H202.1467Z" style="fill: #212946"/>
            <path d="M237.7508,0h12.0037V70.5769h15.8931V81.6914H237.7508Z" style="fill: #212946"/>
            <path d="M285.2486,0h12.0037V70.5769h15.8941V81.6914H285.2486Z" style="fill: #212946"/>
            <path d="M332.7463,0H360.2V12.3372H344.75V33.7878h11.115V46.903H344.75V69.3541H360.2V81.6914H332.7463Z" style="fill: #212946"/>
            <path d="M403.0293,81.6914l-6.224-34.4549h-3.2234V81.6914H381.5782V0h12.0037c14.3373,0,20.4505,8.1138,20.4505,23.5626,0,8.1138-2.112,15.4493-6.6684,18.5613l7.669,39.5675ZM393.5819,36.122a8.3351,8.3351,0,0,0,5.6678-1.7784c1.7784-1.5557,3.2234-4.5569,3.2234-10.3361s-1.4449-8.8917-3.2234-10.448a8.2,8.2,0,0,0-5.6678-1.6671Z" style="fill: #212946"/>
          </g>
          <g>
            <path d="M90.8406,48.5035A18.17,18.17,0,0,0,103.692,17.4828L77.9961,43.1786A18.09,18.09,0,0,0,90.8406,48.5035Z" style="fill: #212946"/>
            <path d="M72.6645,30.3273A18.17,18.17,0,0,1,103.692,17.4828L121.1747,0H0V121.1747L77.9961,43.1786A18.0886,18.0886,0,0,1,72.6645,30.3273Z" style="fill: #212946"/>
            <polygon points="60.587 60.587 60.587 121.175 121.175 121.175 60.587 60.587" style="fill: #212946"/>
          </g>
        </g>
        <g>
          <g>
            <path d="M144.7752,97.929a.3313.3313,0,0,1,.3508-.3508h2.14a.3313.3313,0,0,1,.3508.3508v23.1555a.3313.3313,0,0,1-.3508.3508h-2.14a.3313.3313,0,0,1-.3508-.3508Z" style="fill: #212946"/>
            <path d="M162.3524,97.929a.3313.3313,0,0,1,.3508-.3508h2.6312a.4743.4743,0,0,1,.526.3508l5.3329,17.8926h.1406V97.929a.3313.3313,0,0,1,.3508-.3508h1.8592a.3316.3316,0,0,1,.3512.3508v23.1555a.3316.3316,0,0,1-.3512.3508h-2.4907a.4748.4748,0,0,1-.5264-.3508l-5.4381-17.893h-.1752v17.893a.3316.3316,0,0,1-.3512.3508h-1.8592a.3313.3313,0,0,1-.3508-.3508Z" style="fill: #212946"/>
            <path d="M188.6309,97.929a.3313.3313,0,0,1,.3508-.3508h9.0166a.3315.3315,0,0,1,.3508.3508v1.93a.3317.3317,0,0,1-.3508.3508H191.683a.1861.1861,0,0,0-.2106.21v7.5783a.1862.1862,0,0,0,.2106.2106h5.4731a.3313.3313,0,0,1,.3508.3508v1.93a.3313.3313,0,0,1-.3508.3508H191.683a.1862.1862,0,0,0-.2106.2106v10.034a.3313.3313,0,0,1-.3508.3508h-2.14a.3313.3313,0,0,1-.3508-.3508Z" style="fill: #212946"/>
            <path d="M211.9974,118.2075c-.3508-1.0524-.4563-1.93-.4563-8.7008s.1055-7.6484.4563-8.7008c.7367-2.28,2.5261-3.5435,5.2274-3.5435s4.5258,1.2631,5.2274,3.5435c.3508,1.0524.4563,1.93.4563,8.7008s-.1055,7.6484-.4563,8.7008c-.7016,2.28-2.5257,3.5435-5.2274,3.5435S212.734,120.488,211.9974,118.2075Zm7.7535-.8071c.2106-.7016.2807-1.2276.2807-7.8937s-.07-7.1925-.2807-7.8941a2.44,2.44,0,0,0-2.5261-1.6839,2.3971,2.3971,0,0,0-2.4911,1.6839c-.2453.7016-.3158,1.228-.3158,7.8941s.07,7.1921.3158,7.8937a2.397,2.397,0,0,0,2.4911,1.6843A2.44,2.44,0,0,0,219.7509,117.4Z" style="fill: #212946"/>
            <path d="M236.8726,109.5067c0-6.7712.1055-7.6484.4563-8.7008.7367-2.28,2.5261-3.5435,5.2274-3.5435,3.2978,0,5.1573,1.8592,5.5432,5.1924.035.21-.035.3858-.2453.4209l-1.9651.3858a.3254.3254,0,0,1-.4209-.2807c-.2457-1.9647-1.1575-3.0521-2.8769-3.0521a2.44,2.44,0,0,0-2.5261,1.6839c-.2453.7016-.3158,1.228-.3158,7.8941s.07,7.1921.3158,7.8937a2.7894,2.7894,0,0,0,5.1223,0c.2106-.6666.3158-1.2276.3158-6.1046a.1858.1858,0,0,0-.21-.21h-2.3509a.3317.3317,0,0,1-.3508-.3508v-1.86a.3315.3315,0,0,1,.3508-.3508h4.9471a.3315.3315,0,0,1,.3508.3508v1.0174c0,6.3854-.1055,7.2626-.4563,8.315-.7016,2.28-2.5261,3.5435-5.2274,3.5435s-4.4908-1.2631-5.2274-3.5435C236.9782,117.1551,236.8726,116.2779,236.8726,109.5067Z" style="fill: #212946"/>
            <path d="M271.2555,121.4353a.3535.3535,0,0,1-.3858-.2457l-2.982-9.9639a9.2034,9.2034,0,0,1-.9823.035h-1.4387a.1862.1862,0,0,0-.2106.2106v9.6131a.3313.3313,0,0,1-.3508.3508h-2.14a.3313.3313,0,0,1-.3508-.3508V97.929a.3313.3313,0,0,1,.3508-.3508h4.175c4.21,0,6.4554,1.8241,6.4554,6.8763,0,3.1927-1.0524,5.1223-2.912,6.07l3.3328,10.56c.07.1752,0,.3508-.1752.3508Zm-.7016-16.9808c0-3.2277-1.0524-4.2451-3.5785-4.2451h-1.5087a.1861.1861,0,0,0-.2106.21v8.07a.1861.1861,0,0,0,.2106.21h1.5087C269.431,108.7,270.5538,107.7173,270.5538,104.4545Z" style="fill: #212946"/>
            <path d="M291.3242,97.929c.07-.2106.1752-.3508.3858-.3508h2.1052a.3824.3824,0,0,1,.3858.3508l5.0168,23.1555a.29.29,0,0,1-.3158.3508h-2.1048a.36.36,0,0,1-.3858-.3508l-1.0528-5.2274h-5.2975l-1.0524,5.2274c-.0354.2106-.1406.3508-.3508.3508h-2.1052a.29.29,0,0,1-.3158-.3508Zm3.5435,15.472-2.0347-10.3848h-.1055l-2.1753,10.3848Z" style="fill: #212946"/>
            <path d="M312.8315,121.4353a.3313.3313,0,0,1-.3508-.3508V97.929a.3313.3313,0,0,1,.3508-.3508h4.175c4.21,0,6.4554,1.8946,6.4554,7.1571,0,5.1573-2.28,7.1571-6.4554,7.1571h-1.4737a.1862.1862,0,0,0-.2106.2106v8.9815a.3313.3313,0,0,1-.3508.3508Zm7.7886-16.7c0-3.3683-1.0174-4.5258-3.6136-4.5258h-1.4737a.1861.1861,0,0,0-.2106.21V109.05a.1862.1862,0,0,0,.2106.2106h1.4737C319.6027,109.261,320.62,108.1385,320.62,104.7352Z" style="fill: #212946"/>
            <path d="M337.2859,97.929a.3313.3313,0,0,1,.3508-.3508h2.14a.3313.3313,0,0,1,.3508.3508v9.7532a.1862.1862,0,0,0,.2106.2106H345.46a.1862.1862,0,0,0,.2106-.2106V97.929a.3313.3313,0,0,1,.3508-.3508h2.14a.3316.3316,0,0,1,.3512.3508v23.1555a.3316.3316,0,0,1-.3512.3508h-2.14a.3313.3313,0,0,1-.3508-.3508v-10.35a.1862.1862,0,0,0-.2106-.2106H340.338a.1862.1862,0,0,0-.2106.2106v10.35a.3313.3313,0,0,1-.3508.3508h-2.14a.3313.3313,0,0,1-.3508-.3508Z" style="fill: #212946"/>
            <path d="M363.2482,97.929a.3313.3313,0,0,1,.3508-.3508h2.14a.3313.3313,0,0,1,.3508.3508v23.1555a.3313.3313,0,0,1-.3508.3508h-2.14a.3313.3313,0,0,1-.3508-.3508Z" style="fill: #212946"/>
            <path d="M380.4392,109.5067c0-6.7712.1055-7.7535.4213-8.7359a4.8861,4.8861,0,0,1,5.1223-3.5084c3.1222,0,5.0168,1.6839,5.3326,5.3326a.3257.3257,0,0,1-.2807.4213l-2,.3858c-.21.035-.3858-.07-.3858-.2807-.1756-2.14-.9823-3.1927-2.6312-3.1927a2.2135,2.2135,0,0,0-2.3859,1.6489c-.21.6666-.3158,1.3331-.3158,7.9291s.1055,7.2622.3158,7.9291a2.2135,2.2135,0,0,0,2.3859,1.6489c1.6489,0,2.4556-1.0528,2.6312-3.1927,0-.2106.1756-.3158.3858-.2807l2,.3858a.3254.3254,0,0,1,.2807.4209c-.3158,3.649-2.21,5.3329-5.3326,5.3329a4.8861,4.8861,0,0,1-5.1223-3.5084C380.5447,117.26,380.4392,116.2779,380.4392,109.5067Z" style="fill: #212946"/>
            <path d="M409.4895,121.751c-3.6136,0-5.4381-2.0347-5.6133-6.14,0-.2106.07-.3508.2807-.3858l2.07-.3862a.3043.3043,0,0,1,.3858.3158c.1406,2.9474,1.0878,4,2.9123,4s2.6663-.8772,2.6663-4.1049c0-2.7364-.5264-3.7541-2.421-4.4908l-1.4383-.5614c-3.2628-1.2631-4.175-2.8769-4.175-6.5606,0-4.07,1.754-6.1747,5.3326-6.1747s5.2278,1.9647,5.403,5.6834a.3542.3542,0,0,1-.3158.3862l-1.9647.3158a.2823.2823,0,0,1-.3858-.2807c-.07-2.3509-.8422-3.5084-2.6663-3.5084-1.7544,0-2.5962,1.0524-2.5962,3.4734,0,2.4556.5611,3.2978,2.4907,4.0345l1.4387.5614c3.0521,1.228,4.14,2.8068,4.14,6.7712C415.033,119.5056,413.5243,121.751,409.4895,121.751Z" style="fill: #212946"/>
          </g>
          <g>
            <path d="M156.7789,0V28.5644h.4449l.5557-1.3341L167.7826,0h11.67L168.4491,26.8973l12.4481,54.7941h-11.67l-8.3355-35.5663-.3335-1.6671h-.3335l-.6671,1.6671-2.7785,6.6689V81.6914H144.7752V0Z" style="fill: #212946"/>
            <path d="M202.1467,0H214.15V81.6914H202.1467Z" style="fill: #212946"/>
            <path d="M237.7508,0h12.0037V70.5769h15.8931V81.6914H237.7508Z" style="fill: #212946"/>
            <path d="M285.2486,0h12.0037V70.5769h15.8941V81.6914H285.2486Z" style="fill: #212946"/>
            <path d="M332.7463,0H360.2V12.3372H344.75V33.7878h11.115V46.903H344.75V69.3541H360.2V81.6914H332.7463Z" style="fill: #212946"/>
            <path d="M403.0293,81.6914l-6.224-34.4549h-3.2234V81.6914H381.5782V0h12.0037c14.3373,0,20.4505,8.1138,20.4505,23.5626,0,8.1138-2.112,15.4493-6.6684,18.5613l7.669,39.5675ZM393.5819,36.122a8.3351,8.3351,0,0,0,5.6678-1.7784c1.7784-1.5557,3.2234-4.5569,3.2234-10.3361s-1.4449-8.8917-3.2234-10.448a8.2,8.2,0,0,0-5.6678-1.6671Z" style="fill: #212946"/>
          </g>
          <g>
            <path d="M90.8406,48.5035A18.17,18.17,0,0,0,103.692,17.4828L77.9961,43.1786A18.09,18.09,0,0,0,90.8406,48.5035Z" style="fill: #212946"/>
            <path d="M72.6645,30.3273A18.17,18.17,0,0,1,103.692,17.4828L121.1747,0H0V121.1747L77.9961,43.1786A18.0886,18.0886,0,0,1,72.6645,30.3273Z" style="fill: #212946"/>
            <polygon points="60.587 60.587 60.587 121.175 121.175 121.175 60.587 60.587" style="fill: #212946"/>
          </g>
        </g>
      </g>
    </g>
  </g>
</svg>
