<svg viewBox="0 0 346.041 152.224" xmlns="http://www.w3.org/2000/svg"><path d="m281.73 55.122v-18.22h-8.538v18.22" fill="#bed8e3" stroke="#1997b5" stroke-miterlimit="10" stroke-width="1.5"/><path d="m295.758 55.122v-34.164h-8.539v34.164" fill="#fff" stroke="#1997b5" stroke-miterlimit="10" stroke-width="1.5"/><path d="m309.785 55.122v-45.343h-8.538v45.343" fill="#bed8e3" stroke="#1997b5" stroke-miterlimit="10" stroke-width="1.5"/><path d="m323.813 55.122v-54.164h-8.539v54.164" fill="#fff" stroke="#1997b5" stroke-miterlimit="10" stroke-width="1.5"/><path d="m337.84 55.122v-38.22h-8.538v38.22" fill="#bed8e3" stroke="#1997b5" stroke-miterlimit="10" stroke-width="1.5"/><path d="m266.331.801v59.445h79.71" fill="none" stroke="#1997b5" stroke-miterlimit="10" stroke-width="1.5"/><path d="m93.806 117.888v7.984a8.716 8.716 0 0 0 8.717 8.716h106.839a8.716 8.716 0 0 0 8.716-8.716v-7.984z" fill="#fff" stroke="#1997b5" stroke-miterlimit="10" stroke-width="1.5"/><path d="m218.078 55.444a8.716 8.716 0 0 0 -8.716-8.716h-106.839a8.716 8.716 0 0 0 -8.717 8.716v62.444h124.272z" fill="#bed8e3" stroke="#1997b5" stroke-miterlimit="10" stroke-width="1.5"/><path d="m102.523 52.63h106.839a2.814 2.814 0 0 1 2.814 2.814v56.64a0 0 0 0 1 0 0h-112.467a0 0 0 0 1 0 0v-56.64a2.814 2.814 0 0 1 2.814-2.814z" fill="#fff"/><circle cx="155.942" cy="126.172" fill="#bed8e3" r="4.25"/><path d="m105.383 61.556h101.118" fill="none" stroke="#1997b5" stroke-miterlimit="10" stroke-width="1.5"/><ellipse cx="106.387" cy="57.651" fill="#1997b5" rx="1.09" ry="1.08"/><ellipse cx="109.985" cy="57.651" fill="#1997b5" rx="1.09" ry="1.08"/><ellipse cx="113.582" cy="57.651" fill="#bed8e3" rx="1.09" ry="1.08"/><path d="m140.672 139.997h30.496l-4.524-5.307h-21.403z" fill="#bed8e3"/><path d="m178.448 146.643h-45.012l11.805-11.953h21.403z" fill="none" stroke="#1997b5" stroke-miterlimit="10" stroke-width="1.5"/><path d="m121.5 146.482h68.893a4.992 4.992 0 0 1 4.992 4.992 0 0 0 0 1 0 0h-78.885a0 0 0 0 1 0 0 4.992 4.992 0 0 1 5-4.992z" fill="#bed8e3" stroke="#1997b5" stroke-miterlimit="10" stroke-width="1.5"/><path d="m105.819 66.743h47.359v41.403h-47.359z" fill="none" stroke="#bed8e3" stroke-miterlimit="10" stroke-width="1.5"/><path d="m158.282 73.061h47.359v35.086h-47.359z" fill="none" stroke="#bed8e3" stroke-miterlimit="10" stroke-width="1.5"/><path d="m158.148 66.914h33.658" fill="none" stroke="#bed8e3" stroke-miterlimit="10" stroke-width="1.5"/><path d="m189.39 92.357 3.105 8.412 1.892-3.485 3.415-1.822z" fill="#bed8e3"/><path d="m194.64 96.349h1.082v3.597h-1.082z" fill="#bed8e3" transform="matrix(.70710678 -.70710678 .70710678 .70710678 -12.234 166.76)"/><path d="m309.134 151.474h3.593" fill="none" stroke="#1997b5" stroke-miterlimit="10" stroke-width="1.5"/><path d="m296.235 151.474h9.646" fill="none" stroke="#1997b5" stroke-miterlimit="10" stroke-width="1.5"/><path d="m52.852 151.474h239.356" fill="none" stroke="#1997b5" stroke-miterlimit="10" stroke-width="1.5"/><path d="m34.157 151.474h14.501" fill="none" stroke="#1997b5" stroke-miterlimit="10" stroke-width="1.5"/><rect fill="#bed8e3" height="43.136" rx="1.272" stroke="#1997b5" stroke-linejoin="round" stroke-width="1.5" width="25.183" x="227.499" y="91.453"/><path d="m230.499 131.589v-37.136h5v1h9.184v-1h5v37.136z" fill="#fff"/><circle cx="252.584" cy="115.453" fill="#fff" r="3.423" stroke="#1997b5" stroke-miterlimit="10" stroke-width="1.5"/><circle cx="155.942" cy="46.947" fill="#fff" r="3.423" stroke="#1997b5" stroke-miterlimit="10" stroke-width="1.5"/><path d="m266.255 115.018h43.403" style="fill:none;stroke-dasharray:0 5.106;stroke-linecap:round;stroke-linejoin:round;stroke-width:2;stroke:#bed8e3"/><path d="m312.211 109.957v-43.015" style="fill:none;stroke-dasharray:0 5.061;stroke-linecap:round;stroke-linejoin:round;stroke-width:2;stroke:#bed8e3"/><path d="m10.575 9.945a32.435 32.435 0 0 0 22.618 55.69v-33.072z" fill="#bed8e3" stroke="#bed8e3" stroke-miterlimit="10" stroke-width="1.5"/><path d="m33.193.75a32.327 32.327 0 0 0 -22.618 9.2l22.618 22.613z" fill="#fff" stroke="#1997b5" stroke-miterlimit="10" stroke-width="1.5"/><path d="m33.193.75v64.885a32.443 32.443 0 0 0 0-64.885z" fill="#bed8e3" stroke="#1997b5" stroke-miterlimit="10" stroke-width="1.5"/><circle cx="33.193" cy="32.563" fill="#fff" r="14.746" stroke="#1997b5" stroke-miterlimit="10" stroke-width="1.5"/><g fill="none"><path d="m75.54 25.38h78.017" stroke="#bed8e3" stroke-dasharray="0 5.033" stroke-linecap="round" stroke-linejoin="round" stroke-width="2"/><path d="m156.074 30.162v7.173" stroke="#bed8e3" stroke-dasharray="0 4.782" stroke-linecap="round" stroke-linejoin="round" stroke-width="2"/><path d="m50.084 110.988v4.57" stroke="#bed8e3" stroke-miterlimit="10"/><path d="m50.084 109.988v5.57" stroke="#bed8e3" stroke-miterlimit="10"/><path d="m52.869 112.773h-5.57" stroke="#bed8e3" stroke-miterlimit="10"/><path d="m194.253 16.366v4.569" stroke="#bed8e3" stroke-miterlimit="10"/><path d="m194.253 15.366v5.569" stroke="#bed8e3" stroke-miterlimit="10"/><path d="m197.038 18.15h-5.569" stroke="#bed8e3" stroke-miterlimit="10"/><path d="m282.734 85.932v4.57" stroke="#bed8e3" stroke-miterlimit="10"/><path d="m282.734 84.932v5.57" stroke="#bed8e3" stroke-miterlimit="10"/><path d="m285.519 87.717h-5.569" stroke="#bed8e3" stroke-miterlimit="10"/><path d="m241.141 43.807h-5.57" stroke="#bed8e3" stroke-miterlimit="10"/><path d="m71.057 78.136h-5.57" stroke="#bed8e3" stroke-miterlimit="10"/></g></svg>