<svg viewBox="0 0 976.883 390.52" xmlns="http://www.w3.org/2000/svg" xmlns:xlink="http://www.w3.org/1999/xlink"><clipPath id="a"><path d="m155.769 332.538h99.106a2.293 2.293 0 0 1 2.293 2.293v41.064a0 0 0 0 1 0 0h-103.691a0 0 0 0 1 0 0v-41.064a2.293 2.293 0 0 1 2.292-2.293z"/></clipPath><path d="m807.918 45.769h35.504" style="fill:none;stroke:#0091ff;stroke-linecap:round;stroke-miterlimit:10;stroke-width:2;stroke-dasharray:0 6"/><path d="m878.145 203.27h-17.516a20.55 20.55 0 0 0 -20.55 20.549v71.081" style="fill:none;stroke:#0091ff;stroke-linecap:round;stroke-miterlimit:10;stroke-width:2;stroke-dasharray:0 6"/><path d="m429.815 353.202h122.226v22.692h-122.226z" fill="#0091ff" stroke="#0091ff" stroke-miterlimit="10" stroke-width="2"/><path d="m175.075 7.159h601.056a2.394 2.394 0 0 1 2.394 2.394v341.255a2.394 2.394 0 0 1 -2.394 2.394h-608.564a2.394 2.394 0 0 1 -2.394-2.394v-333.747a9.9 9.9 0 0 1 9.902-9.902z" fill="#0091ff" stroke="#0091ff" stroke-miterlimit="10" stroke-width="2"/><path d="m204.468 7.159h593.548a9.9 9.9 0 0 1 9.9 9.9v333.749a2.394 2.394 0 0 1 -2.394 2.394h-608.561a2.394 2.394 0 0 1 -2.394-2.394v-333.747a9.9 9.9 0 0 1 9.901-9.902z" fill="#f1f1f2" stroke="#0091ff" stroke-miterlimit="10" stroke-width="2"/><path d="m64.022 375.894h839.46" fill="#f1f1f2" stroke="#0091ff" stroke-linecap="round" stroke-miterlimit="10" stroke-width="2"/><path d="m636.506 302.632h-396.872a.8.8 0 0 1 -.8-.8v-230.299a.8.8 0 0 1 .8-.8h396.872a.8.8 0 0 1 .8.8v132.1" fill="none" stroke="#0091ff" stroke-linecap="round" stroke-miterlimit="10" stroke-width="2"/><path d="m637.306 210.192v88.626" style="fill:none;stroke:#0091ff;stroke-linecap:round;stroke-miterlimit:10;stroke-width:2;stroke-dasharray:0 6"/><path d="m305.488 241.158 73.512-66.258a4.7 4.7 0 0 1 6.1-.157l40.808 33.139a4.7 4.7 0 0 0 6.2-.246l62.392-59.445a4.7 4.7 0 0 1 6.965.542l69.814 92.425z" fill="#0091ff"/><circle cx="333.808" cy="143.496" fill="#0091ff" r="25.053"/><circle cx="438.07" cy="186.683" fill="#f1f1f2" r="38.934" stroke="#0091ff" stroke-miterlimit="10" stroke-width="2"/><path d="m428.948 170.394v32.577l21.261-16.288z" fill="#0091ff"/><rect fill="#f1f1f2" height="64.564" rx=".8" stroke="#0091ff" stroke-miterlimit="10" stroke-width="2" width="110.941" x="652.71" y="70.733"/><rect fill="#0091ff" height="64.564" rx=".8" width="110.941" x="652.71" y="154.401"/><rect fill="#f1f1f2" height="64.564" rx=".8" stroke="#0091ff" stroke-miterlimit="10" stroke-width="2" width="110.941" x="652.71" y="238.068"/><path d="m677.812 117.037 16.8-15.141a1.072 1.072 0 0 1 1.395-.036l9.325 7.572a1.072 1.072 0 0 0 1.417-.056l14.251-13.584a1.074 1.074 0 0 1 1.592.124l15.953 21.121z" fill="#0091ff"/><circle cx="684.283" cy="94.72" fill="#0091ff" r="5.725"/><path d="m677.812 200.7 16.8-15.141a1.073 1.073 0 0 1 1.395-.036l9.325 7.572a1.072 1.072 0 0 0 1.417-.056l14.251-13.58a1.074 1.074 0 0 1 1.592.124l15.957 21.117z" fill="#f1f1f2"/><circle cx="684.283" cy="178.387" fill="#f1f1f2" r="5.725"/><path d="m677.812 284.371 16.8-15.141a1.073 1.073 0 0 1 1.395-.036l9.325 7.573a1.073 1.073 0 0 0 1.417-.057l14.251-13.583a1.074 1.074 0 0 1 1.592.123l15.953 21.121z" fill="#0091ff"/><circle cx="684.283" cy="262.054" fill="#0091ff" r="5.725"/><rect fill="#fff" height="15.681" rx="7.841" stroke="#0091ff" stroke-miterlimit="10" stroke-width="2" width="361.462" x="238.834" y="38.366"/><rect fill="#f1f1f2" height="15.681" rx="7.841" stroke="#0091ff" stroke-miterlimit="10" stroke-width="2" width="26.007" x="611.299" y="38.366"/><circle cx="625.184" cy="45.037" fill="#f1f1f2" r="2.913" stroke="#0091ff" stroke-miterlimit="10" stroke-width="2"/><path d="m619.794 50.427 3.33-3.33" fill="#f1f1f2" stroke="#0091ff" stroke-linecap="round" stroke-miterlimit="10" stroke-width="2"/><path d="m277.828 270.35h322.468" fill="#0091ff" stroke="#0091ff" stroke-linecap="round" stroke-miterlimit="10" stroke-width="2"/><path d="m440.13 353.202h122.226v22.692h-122.226z" fill="#f1f1f2" stroke="#0091ff" stroke-miterlimit="10" stroke-width="2"/><path d="m807.151 321.419h-612.585" fill="#f1f1f2" stroke="#0091ff" stroke-miterlimit="10" stroke-width="2"/><circle cx="501.242" cy="337.391" fill="#0091ff" r="5.945"/><circle cx="501.242" cy="20.284" fill="#0091ff" r="2.363"/><circle cx="477.026" cy="270.365" fill="#f1f1f2" r="5.177" stroke="#0091ff" stroke-miterlimit="10" stroke-width="2"/><rect fill="#f1f1f2" height="12.06" rx="5.548" stroke="#0091ff" stroke-miterlimit="10" stroke-width="2" width="22.647" x="741.004" y="39.256"/><circle cx="757.621" cy="45.286" fill="#0091ff" r="6.03"/><path d="m728.055 42.453h-17.722" fill="#f1f1f2" stroke="#0091ff" stroke-linecap="round" stroke-miterlimit="10" stroke-width="2"/><path d="m728.055 48.8h-17.722" fill="#f1f1f2" stroke="#0091ff" stroke-linecap="round" stroke-miterlimit="10" stroke-width="2"/><circle cx="250.979" cy="46.207" fill="#0091ff" r="3.471"/><circle cx="264.196" cy="46.207" fill="#0091ff" r="3.471"/><circle cx="277.414" cy="46.207" fill="#0091ff" r="3.471"/><circle cx="290.631" cy="46.207" fill="#0091ff" r="3.471"/><circle cx="303.849" cy="46.207" fill="#0091ff" r="3.471"/><rect fill="#0091ff" height="148.697" rx="2.394" stroke="#0091ff" stroke-miterlimit="10" stroke-width="1.5" transform="matrix(0 -1 1 0 -79.333 463.439)" width="209.017" x="87.544" y="197.038"/><rect fill="#f1f1f2" height="148.697" rx="2.394" stroke="#0091ff" stroke-miterlimit="10" stroke-width="1.5" transform="matrix(0 -1 1 0 -66.064 476.708)" width="209.017" x="100.814" y="197.038"/><rect fill="#f1f1f2" height="57.982" rx="2.293" stroke="#0091ff" stroke-miterlimit="10" stroke-width="1.5" width="103.691" x="153.477" y="194.733"/><rect fill="#0091ff" height="57.982" rx="2.293" stroke="#0091ff" stroke-miterlimit="10" stroke-width="1.5" width="103.691" x="153.477" y="263.635"/><path d="m155.769 332.538h99.106a2.293 2.293 0 0 1 2.293 2.293v41.064a0 0 0 0 1 0 0h-103.691a0 0 0 0 1 0 0v-41.064a2.293 2.293 0 0 1 2.292-2.293z" fill="#f1f1f2" stroke="#0091ff" stroke-miterlimit="10" stroke-width="1.5"/><path d="m171.227 252.714 26.694-24.06a1.7 1.7 0 0 1 2.216-.057l14.819 12.033a1.706 1.706 0 0 0 2.252-.089l22.656-21.586a1.705 1.705 0 0 1 2.529.2l14.775 19.26v10.207a4.1 4.1 0 0 1 -4.095 4.095z" fill="#0091ff"/><circle cx="181.511" cy="217.251" fill="#0091ff" r="9.097"/><path d="m171.716 322.4 26.694-24.061a1.707 1.707 0 0 1 2.217-.057l14.819 12.034a1.706 1.706 0 0 0 2.251-.089l22.656-21.586a1.706 1.706 0 0 1 2.53.2l14.774 19.26v11.428a2.875 2.875 0 0 1 -2.875 2.875z" fill="#f1f1f2" stroke="#f1f1f2" stroke-miterlimit="10" stroke-width="1.5"/><circle cx="181.511" cy="286.153" fill="#f1f1f2" r="9.097" stroke="#f1f1f2" stroke-miterlimit="10" stroke-width="1.5"/><g clip-path="url(#a)" fill="#0091ff"><path d="m171.227 390.52 26.694-24.061a1.705 1.705 0 0 1 2.216-.057l14.819 12.034a1.707 1.707 0 0 0 2.252-.089l22.656-21.586a1.7 1.7 0 0 1 2.529.2l14.775 19.26v10.207a4.1 4.1 0 0 1 -4.095 4.1z"/><circle cx="181.511" cy="355.056" r="9.097"/></g><circle cx="214.003" cy="179.074" fill="#fff" r="4.259" stroke="#0091ff" stroke-miterlimit="10" stroke-width="1.5"/><path d="m198.316 292.145h16.407a0 0 0 0 1 0 0v148.7a0 0 0 0 1 0 0h-16.407a2.394 2.394 0 0 1 -2.394-2.394v-143.912a2.394 2.394 0 0 1 2.394-2.394z" fill="#f1f1f2" stroke="#0091ff" stroke-miterlimit="10" stroke-width="1.5" transform="matrix(0 -1 1 0 -161.171 571.816)"/><circle cx="205.322" cy="366.27" fill="#0091ff" r="4.966"/><path d="m203.131 178.936h-11.078" fill="#f1f1f2" stroke="#0091ff" stroke-linecap="round" stroke-miterlimit="10" stroke-width="1.5"/><rect fill="none" height="57.982" rx="2.293" stroke="#0091ff" stroke-miterlimit="10" stroke-width="1.5" width="103.691" x="153.477" y="263.635"/><path d="m347.3 233.763v139.045c0 1.6 7.4 2.89 5.8 2.89h-83.809a2.89 2.89 0 0 1 -2.89-2.89v-139.045a2.89 2.89 0 0 1 2.89-2.891h83.809c1.6 0-5.8 1.294-5.8 2.891z" fill="#0091ff" stroke="#0091ff" stroke-miterlimit="10" stroke-width="1.5"/><rect fill="#f1f1f2" height="80.9" rx="2.394" stroke="#0091ff" stroke-miterlimit="10" stroke-width="1.5" transform="matrix(0 -1 1 0 12.76 619.33)" width="144.825" x="243.633" y="262.835"/><circle cx="316.045" cy="358.078" fill="#f1f1f2" r="6.293" stroke="#0091ff" stroke-miterlimit="10" stroke-width="1.5"/><circle cx="316.045" cy="358.078" fill="#fff" r="6.293" stroke="#0091ff" stroke-miterlimit="10" stroke-width="1.5"/><path d="m308.82 239.271h14.451" fill="#f1f1f2" stroke="#0091ff" stroke-linecap="round" stroke-miterlimit="10" stroke-width="1.5"/><path d="m288.814 285.209 15.063-13.577a.961.961 0 0 1 1.25-.032l8.362 6.791a.963.963 0 0 0 1.271-.051l12.784-12.18a.963.963 0 0 1 1.428.111l14.305 18.938z" fill="#0091ff"/><circle cx="294.617" cy="265.198" fill="#0091ff" r="5.134"/><g stroke="#0091ff"><path d="m288.814 294.623h54.463" fill="#f1f1f2" stroke-linecap="round" stroke-miterlimit="10" stroke-width="1.5"/><path d="m288.814 303.049h43.494" fill="#f1f1f2" stroke-linecap="round" stroke-miterlimit="10" stroke-width="1.5"/><path d="m288.814 319.31h56.136" fill="#f1f1f2" stroke-linecap="round" stroke-miterlimit="10" stroke-width="1.5"/><path d="m288.814 326.539h56.136" fill="#f1f1f2" stroke-linecap="round" stroke-miterlimit="10" stroke-width="1.5"/><path d="m288.814 333.768h56.136" fill="#f1f1f2" stroke-linecap="round" stroke-miterlimit="10" stroke-width="1.5"/><path d="m288.814 340.996h56.136" fill="#f1f1f2" stroke-linecap="round" stroke-miterlimit="10" stroke-width="1.5"/><path d="m289.484 251.484h32.855" fill="#f1f1f2" stroke-linecap="round" stroke-miterlimit="10" stroke-width="1.5"/><path d="m646.023 299.278h31.44a7.106 7.106 0 0 1 7.106 7.106v62.4a7.106 7.106 0 0 1 -7.106 7.106h-31.44a0 0 0 0 1 0 0v-76.612a0 0 0 0 1 0 0z" fill="#0091ff" stroke-miterlimit="10" stroke-width="2" transform="matrix(-1 0 0 -1 1330.592 675.172)"/><path d="m693.819 299.278h133.383v76.616h-133.383z" fill="#f1f1f2" stroke-miterlimit="10" stroke-width="2"/><path d="m827.2 299.278h31.44a7.106 7.106 0 0 1 7.106 7.106v62.4a7.106 7.106 0 0 1 -7.106 7.106h-31.44a0 0 0 0 1 0 0v-76.612a0 0 0 0 1 0 0z" fill="#f1f1f2" stroke-miterlimit="10" stroke-width="2"/><path d="m655.272 299.278h31.44a7.106 7.106 0 0 1 7.106 7.106v62.4a7.106 7.106 0 0 1 -7.106 7.106h-31.44a0 0 0 0 1 0 0v-76.612a0 0 0 0 1 0 0z" fill="#f1f1f2" stroke-miterlimit="10" stroke-width="2" transform="matrix(-1 0 0 -1 1349.091 675.172)"/></g><circle cx="674.545" cy="319.397" fill="#0091ff" r="8.043"/><circle cx="846.475" cy="347.288" fill="#fff" r="8.043" stroke="#0091ff" stroke-miterlimit="10" stroke-width="2"/><circle cx="674.545" cy="340.892" fill="#0091ff" r="2.854"/><circle cx="674.545" cy="353.683" fill="#0091ff" r="2.854"/><circle cx="680.941" cy="347.288" fill="none" r="2.854" stroke="#0091ff" stroke-miterlimit="10" stroke-width="2"/><circle cx="668.15" cy="347.288" fill="none" r="2.854" stroke="#0091ff" stroke-miterlimit="10" stroke-width="2"/><circle cx="846.475" cy="313.001" fill="none" r="2.854" stroke="#0091ff" stroke-miterlimit="10" stroke-width="2"/><circle cx="846.475" cy="325.792" fill="none" r="2.854" stroke="#0091ff" stroke-miterlimit="10" stroke-width="2"/><circle cx="852.87" cy="319.397" fill="#0091ff" r="2.854"/><circle cx="840.079" cy="319.397" fill="#0091ff" r="2.854"/><path d="m843.621 365.464h5.708" fill="#f1f1f2" stroke="#0091ff" stroke-linecap="round" stroke-miterlimit="10" stroke-width="2"/><path d="m671.691 365.464h5.708" fill="#f1f1f2" stroke="#0091ff" stroke-linecap="round" stroke-miterlimit="10" stroke-width="2"/><path d="m719.463 358.2 22.7-20.465a1.451 1.451 0 0 1 1.886-.049l12.6 10.236a1.451 1.451 0 0 0 1.915-.076l19.271-18.361a1.451 1.451 0 0 1 2.151.168l21.571 28.547z" fill="#0091ff"/><circle cx="728.21" cy="328.031" fill="#0091ff" r="7.738"/><circle cx="889.19" cy="45.769" fill="#f1f1f2" r="45.769"/><path d="m906.48 44.609v16.018h-37.999v-4.983l12.667-5.044 12.666 1.533z" fill="#fff"/><path d="m868.481 52.895v7.049" fill="none" stroke="#f47928" stroke-linecap="round" stroke-miterlimit="10" stroke-width="1.5"/><path d="m881.148 44.609v15.335" fill="none" stroke="#f47928" stroke-linecap="round" stroke-miterlimit="10" stroke-width="1.5"/><path d="m893.814 47.126v12.818" fill="none" stroke="#f47928" stroke-linecap="round" stroke-miterlimit="10" stroke-width="1.5"/><path d="m906.48 34.768v25.176" fill="none" stroke="#f47928" stroke-linecap="round" stroke-miterlimit="10" stroke-width="1.5"/><path d="m888.179 67.378h18.301" fill="#f1f1f2" stroke="#0091ff" stroke-linecap="round" stroke-miterlimit="10" stroke-width="1.5"/><path d="m868.481 67.378h19.698" style="fill:none;stroke:#0091ff;stroke-linecap:round;stroke-miterlimit:10;stroke-width:2;stroke-dasharray:0 4"/><path d="m867.256 44.609 13.892-11.309 12.666 3.829 12.666-12.305" fill="none" stroke="#0091ff" stroke-linecap="round" stroke-miterlimit="10" stroke-width="1.5"/><circle cx="868.242" cy="44.483" fill="#0091ff" r="3.973"/><circle cx="881.148" cy="33.565" fill="#0091ff" r="3.973"/><circle cx="893.814" cy="37.538" fill="#0091ff" r="3.973"/><circle cx="906.48" cy="24.824" fill="#0091ff" r="3.973"/><circle cx="74.537" cy="45.769" fill="#f1f1f2" r="45.769"/><circle cx="931.114" cy="202.105" fill="#f1f1f2" r="45.769"/><path d="m941.422 186.225a13.942 13.942 0 0 1 -6.4 15.487" style="fill:none;stroke:#0091ff;stroke-linecap:round;stroke-miterlimit:10;stroke-width:2;stroke-dasharray:0 4"/><path d="m919.844 201.057a13.928 13.928 0 1 1 20.237-18.157" fill="none" stroke="#f47928" stroke-linecap="round" stroke-miterlimit="10" stroke-width="1.5"/><path d="m925.034 216.263v-24.581a3.11 3.11 0 0 1 3.111-3.11 3.11 3.11 0 0 1 3.111 3.11v12.918a3.109 3.109 0 0 0 1.744 2.791l15.915 5.312a3.112 3.112 0 0 1 1.741 2.793v9.5a2.261 2.261 0 0 1 -2.261 2.261h-26.681a3.107 3.107 0 0 1 -2.158-.871l-7.028-6.772a3.111 3.111 0 0 1 -.185-4.287l.736-.842a3.112 3.112 0 0 1 4.461-.232l3.868 3.595a2.157 2.157 0 0 0 3.626-1.585z" fill="#fff" stroke="#0091ff" stroke-linecap="round" stroke-miterlimit="10" stroke-width="1.5"/><path d="m931.279 202.683v11.813" fill="#f1f1f2" stroke="#0091ff" stroke-linecap="round" stroke-miterlimit="10" stroke-width="1.5"/><path d="m937.214 209.008v5.488" fill="#f1f1f2" stroke="#0091ff" stroke-linecap="round" stroke-miterlimit="10" stroke-width="1.5"/><path d="m943.313 211v3.496" fill="#f1f1f2" stroke="#0091ff" stroke-linecap="round" stroke-miterlimit="10" stroke-width="1.5"/><circle cx="45.769" cy="199.286" fill="#f1f1f2" r="45.769"/><path d="m72.691 204.447s-12.015 14.747-26.837 14.747-26.837-14.747-26.837-14.747 12.015-14.747 26.837-14.747 26.837 14.747 26.837 14.747z" fill="#fff" stroke="#0091ff" stroke-linecap="round" stroke-miterlimit="10" stroke-width="1.5"/><circle cx="45.854" cy="204.447" fill="#f1f1f2" r="14.484"/><path d="m59.248 209.165a19.659 19.659 0 0 0 .052-10.365" style="fill:none;stroke:#f47928;stroke-linecap:round;stroke-miterlimit:10;stroke-width:2;stroke-dasharray:0 4"/><path d="m58.832 197.444a14.747 14.747 0 1 0 -5.975 19.981l-2.006.9a14.682 14.682 0 0 0 7.679-6.338" fill="none" stroke="#0091ff" stroke-linecap="round" stroke-miterlimit="10" stroke-width="1.5"/><circle cx="45.854" cy="204.447" fill="#0091ff" r="9.99"/><path d="m34.04 181.4 1.557 4.275" fill="none" stroke="#f47928" stroke-linecap="round" stroke-miterlimit="10" stroke-width="1.5"/><path d="m45.731 179.238v4.74" fill="none" stroke="#f47928" stroke-linecap="round" stroke-miterlimit="10" stroke-width="1.5"/><path d="m57.476 181.697-1.611 3.978" fill="none" stroke="#f47928" stroke-linecap="round" stroke-miterlimit="10" stroke-width="1.5"/><path d="m67.575 187.158-2.783 3.317" fill="none" stroke="#f47928" stroke-linecap="round" stroke-miterlimit="10" stroke-width="1.5"/><path d="m23.888 187.158 2.783 3.317" fill="none" stroke="#f47928" stroke-linecap="round" stroke-miterlimit="10" stroke-width="1.5"/><path d="m45.769 252.255v29.01a18.013 18.013 0 0 0 18.013 18.013h53.918" style="fill:none;stroke:#0091ff;stroke-linecap:round;stroke-miterlimit:10;stroke-width:2;stroke-dasharray:0 6"/><path d="m66.007 32.141a13.835 13.835 0 0 1 25.154 1.966 9.416 9.416 0 1 1 2.261 18.556h-12.548c4.7-5.655.842-14.824-6.337-12.892a14.424 14.424 0 0 0 -8.53-7.63z" fill="#fff"/><path d="m87.942 52.663h5.48a9.421 9.421 0 1 0 -2.261-18.556 13.835 13.835 0 0 0 -25.154-1.966" fill="none" stroke="#0091ff" stroke-linecap="round" stroke-miterlimit="10" stroke-width="1.5"/><path d="m72.077 54.039h4.206a7.23 7.23 0 1 0 -1.736-14.239 10.619 10.619 0 0 0 -19.986 0 7.227 7.227 0 1 0 -1.735 14.242h4.737" fill="none" stroke="#0091ff" stroke-linecap="round" stroke-miterlimit="10" stroke-width="1.5"/><path d="m64.183 49.936v17.759" style="fill:#f1f1f2;stroke:#f47928;stroke-linecap:round;stroke-miterlimit:10;stroke-width:2;stroke-dasharray:0 4"/><path d="m60.66 48.693 3.523-3.37 3.522 3.37" fill="none" stroke="#f47928" stroke-linecap="round" stroke-linejoin="round" stroke-width="1.5"/><path d="m79.99 58.414v7.699" fill="#f1f1f2" stroke="#f47928" stroke-linecap="round" stroke-linejoin="round" stroke-width="1.5"/><path d="m76.467 61.282 3.523-3.37 3.522 3.37" fill="none" stroke="#f47928" stroke-linecap="round" stroke-linejoin="round" stroke-width="1.5"/><path d="m127.505 45.769h37.668" style="fill:none;stroke:#0091ff;stroke-linecap:round;stroke-miterlimit:10;stroke-width:2;stroke-dasharray:0 6"/></svg>