<svg xmlns="http://www.w3.org/2000/svg" viewBox="0 0 346.041 152.224"><title>slide8-2</title><g id="Layer_2" data-name="Layer 2"><g id="Layer_1-2" data-name="Layer 1"><polyline points="281.73 55.122 281.73 36.902 273.192 36.902 273.192 55.122" fill="#bed8e3" stroke="#1997b5" stroke-miterlimit="10" stroke-width="1.5"/><polyline points="295.758 55.122 295.758 20.958 287.219 20.958 287.219 55.122" fill="#fff" stroke="#1997b5" stroke-miterlimit="10" stroke-width="1.5"/><polyline points="309.785 55.122 309.785 9.779 301.247 9.779 301.247 55.122" fill="#bed8e3" stroke="#1997b5" stroke-miterlimit="10" stroke-width="1.5"/><polyline points="323.813 55.122 323.813 0.958 315.274 0.958 315.274 55.122" fill="#fff" stroke="#1997b5" stroke-miterlimit="10" stroke-width="1.5"/><polyline points="337.84 55.122 337.84 16.902 329.302 16.902 329.302 55.122" fill="#bed8e3" stroke="#1997b5" stroke-miterlimit="10" stroke-width="1.5"/><polyline points="266.331 0.801 266.331 60.246 346.041 60.246" fill="none" stroke="#1997b5" stroke-miterlimit="10" stroke-width="1.5"/><path d="M93.806,117.888v7.984a8.716,8.716,0,0,0,8.717,8.716H209.362a8.716,8.716,0,0,0,8.716-8.716v-7.984Z" fill="#fff" stroke="#1997b5" stroke-miterlimit="10" stroke-width="1.5"/><path d="M218.078,55.444a8.716,8.716,0,0,0-8.716-8.716H102.523a8.716,8.716,0,0,0-8.717,8.716v62.444H218.078Z" fill="#bed8e3" stroke="#1997b5" stroke-miterlimit="10" stroke-width="1.5"/><path d="M102.523,52.63H209.362a2.814,2.814,0,0,1,2.814,2.814v56.64a0,0,0,0,1,0,0H99.709a0,0,0,0,1,0,0V55.444A2.814,2.814,0,0,1,102.523,52.63Z" fill="#fff"/><circle cx="155.942" cy="126.172" r="4.25" fill="#bed8e3"/><line x1="105.383" y1="61.556" x2="206.501" y2="61.556" fill="none" stroke="#1997b5" stroke-miterlimit="10" stroke-width="1.5"/><ellipse cx="106.387" cy="57.651" rx="1.09" ry="1.08" fill="#1997b5"/><ellipse cx="109.985" cy="57.651" rx="1.09" ry="1.08" fill="#1997b5"/><ellipse cx="113.582" cy="57.651" rx="1.09" ry="1.08" fill="#bed8e3"/><polygon points="140.672 139.997 171.168 139.997 166.644 134.69 145.241 134.69 140.672 139.997" fill="#bed8e3"/><polygon points="178.448 146.643 133.436 146.643 145.241 134.69 166.644 134.69 178.448 146.643" fill="none" stroke="#1997b5" stroke-miterlimit="10" stroke-width="1.5"/><path d="M121.5,146.482h68.893a4.992,4.992,0,0,1,4.992,4.992v0a0,0,0,0,1,0,0H116.5a0,0,0,0,1,0,0v0A4.992,4.992,0,0,1,121.5,146.482Z" fill="#bed8e3" stroke="#1997b5" stroke-miterlimit="10" stroke-width="1.5"/><rect x="105.819" y="66.743" width="47.359" height="41.403" fill="none" stroke="#bed8e3" stroke-miterlimit="10" stroke-width="1.5"/><rect x="158.282" y="73.061" width="47.359" height="35.086" fill="none" stroke="#bed8e3" stroke-miterlimit="10" stroke-width="1.5"/><line x1="158.148" y1="66.914" x2="191.806" y2="66.914" fill="none" stroke="#bed8e3" stroke-miterlimit="10" stroke-width="1.5"/><polygon points="189.39 92.357 192.495 100.769 194.387 97.284 197.802 95.462 189.39 92.357" fill="#bed8e3"/><rect x="194.64" y="96.349" width="1.082" height="3.597" transform="translate(-12.234 166.76) rotate(-45)" fill="#bed8e3"/><line x1="309.134" y1="151.474" x2="312.727" y2="151.474" fill="none" stroke="#1997b5" stroke-miterlimit="10" stroke-width="1.5"/><line x1="296.235" y1="151.474" x2="305.881" y2="151.474" fill="none" stroke="#1997b5" stroke-miterlimit="10" stroke-width="1.5"/><line x1="52.852" y1="151.474" x2="292.208" y2="151.474" fill="none" stroke="#1997b5" stroke-miterlimit="10" stroke-width="1.5"/><line x1="34.157" y1="151.474" x2="48.658" y2="151.474" fill="none" stroke="#1997b5" stroke-miterlimit="10" stroke-width="1.5"/><rect x="227.499" y="91.453" width="25.183" height="43.136" rx="1.272" fill="#bed8e3" stroke="#1997b5" stroke-linejoin="round" stroke-width="1.5"/><polygon points="230.499 131.589 230.499 94.453 235.499 94.453 235.499 95.453 244.683 95.453 244.683 94.453 249.683 94.453 249.683 131.589 230.499 131.589" fill="#fff"/><circle cx="252.584" cy="115.453" r="3.423" fill="#fff" stroke="#1997b5" stroke-miterlimit="10" stroke-width="1.5"/><circle cx="155.942" cy="46.947" r="3.423" fill="#fff" stroke="#1997b5" stroke-miterlimit="10" stroke-width="1.5"/><line x1="261.149" y1="115.018" x2="261.149" y2="115.018" fill="none" stroke="#bed8e3" stroke-linecap="round" stroke-linejoin="round" stroke-width="2"/><line x1="266.255" y1="115.018" x2="309.658" y2="115.018" fill="none" stroke-dasharray="0 5.106" stroke-linecap="round" stroke-linejoin="round" stroke-width="2" stroke="#bed8e3"/><line x1="312.211" y1="115.018" x2="312.211" y2="115.018" fill="none" stroke="#bed8e3" stroke-linecap="round" stroke-linejoin="round" stroke-width="2"/><line x1="312.211" y1="109.957" x2="312.211" y2="66.942" fill="none" stroke-dasharray="0 5.061" stroke-linecap="round" stroke-linejoin="round" stroke-width="2" stroke="#bed8e3"/><line x1="312.211" y1="64.411" x2="312.211" y2="64.411" fill="none" stroke="#bed8e3" stroke-linecap="round" stroke-linejoin="round" stroke-width="2"/><path d="M10.575,9.945a32.435,32.435,0,0,0,22.618,55.69V32.563Z" fill="#bed8e3" stroke="#bed8e3" stroke-miterlimit="10" stroke-width="1.5"/><path d="M33.193.75a32.327,32.327,0,0,0-22.618,9.2L33.193,32.563Z" fill="#fff" stroke="#1997b5" stroke-miterlimit="10" stroke-width="1.5"/><path d="M33.193.75V65.635a32.443,32.443,0,0,0,0-64.885Z" fill="#bed8e3" stroke="#1997b5" stroke-miterlimit="10" stroke-width="1.5"/><circle cx="33.193" cy="32.563" r="14.746" fill="#fff" stroke="#1997b5" stroke-miterlimit="10" stroke-width="1.5"/><line x1="70.507" y1="25.38" x2="70.507" y2="25.38" fill="none" stroke="#bed8e3" stroke-linecap="round" stroke-linejoin="round" stroke-width="2"/><line x1="75.54" y1="25.38" x2="153.557" y2="25.38" fill="none" stroke-dasharray="0 5.033" stroke-linecap="round" stroke-linejoin="round" stroke-width="2" stroke="#bed8e3"/><line x1="156.074" y1="25.38" x2="156.074" y2="25.38" fill="none" stroke="#bed8e3" stroke-linecap="round" stroke-linejoin="round" stroke-width="2"/><line x1="156.074" y1="30.162" x2="156.074" y2="37.335" fill="none" stroke-dasharray="0 4.782" stroke-linecap="round" stroke-linejoin="round" stroke-width="2" stroke="#bed8e3"/><line x1="156.074" y1="39.726" x2="156.074" y2="39.726" fill="none" stroke="#bed8e3" stroke-linecap="round" stroke-linejoin="round" stroke-width="2"/><line x1="50.084" y1="110.988" x2="50.084" y2="115.558" fill="none" stroke="#bed8e3" stroke-miterlimit="10"/><line x1="50.084" y1="109.988" x2="50.084" y2="115.558" fill="none" stroke="#bed8e3" stroke-miterlimit="10"/><line x1="52.869" y1="112.773" x2="47.299" y2="112.773" fill="none" stroke="#bed8e3" stroke-miterlimit="10"/><line x1="194.253" y1="16.366" x2="194.253" y2="20.935" fill="none" stroke="#bed8e3" stroke-miterlimit="10"/><line x1="194.253" y1="15.366" x2="194.253" y2="20.935" fill="none" stroke="#bed8e3" stroke-miterlimit="10"/><line x1="197.038" y1="18.15" x2="191.469" y2="18.15" fill="none" stroke="#bed8e3" stroke-miterlimit="10"/><line x1="282.734" y1="85.932" x2="282.734" y2="90.502" fill="none" stroke="#bed8e3" stroke-miterlimit="10"/><line x1="282.734" y1="84.932" x2="282.734" y2="90.502" fill="none" stroke="#bed8e3" stroke-miterlimit="10"/><line x1="285.519" y1="87.717" x2="279.95" y2="87.717" fill="none" stroke="#bed8e3" stroke-miterlimit="10"/><line x1="241.141" y1="43.807" x2="235.571" y2="43.807" fill="none" stroke="#bed8e3" stroke-miterlimit="10"/><line x1="71.057" y1="78.136" x2="65.487" y2="78.136" fill="none" stroke="#bed8e3" stroke-miterlimit="10"/></g></g></svg>