<svg xmlns="http://www.w3.org/2000/svg" xmlns:xlink="http://www.w3.org/1999/xlink" viewBox="0 0 976.883 390.52"><defs><clipPath id="clip-path"><path d="M155.769,332.538h99.106a2.293,2.293,0,0,1,2.293,2.293v41.064a0,0,0,0,1,0,0H153.477a0,0,0,0,1,0,0V334.831A2.293,2.293,0,0,1,155.769,332.538Z" fill="none"/></clipPath></defs><title>cloudinary-ebook-1</title><g id="Layer_2" data-name="Layer 2"><g id="Content"><line x1="807.918" y1="45.769" x2="843.422" y2="45.769" fill="none" stroke="#0091ff" stroke-linecap="round" stroke-miterlimit="10" stroke-width="2" stroke-dasharray="0 6"/><path d="M878.145,203.27H860.629a20.55,20.55,0,0,0-20.55,20.549V294.9" fill="none" stroke="#0091ff" stroke-linecap="round" stroke-miterlimit="10" stroke-width="2" stroke-dasharray="0 6"/><rect x="429.815" y="353.202" width="122.226" height="22.692" fill="#0091ff" stroke="#0091ff" stroke-miterlimit="10" stroke-width="2"/><path d="M175.075,7.159H776.131a2.394,2.394,0,0,1,2.394,2.394V350.808a2.394,2.394,0,0,1-2.394,2.394H167.567a2.394,2.394,0,0,1-2.394-2.394V17.061A9.9,9.9,0,0,1,175.075,7.159Z" fill="#0091ff" stroke="#0091ff" stroke-miterlimit="10" stroke-width="2"/><path d="M204.468,7.159H798.016a9.9,9.9,0,0,1,9.9,9.9V350.808a2.394,2.394,0,0,1-2.394,2.394H196.961a2.394,2.394,0,0,1-2.394-2.394V17.061A9.9,9.9,0,0,1,204.468,7.159Z" fill="#f1f1f2" stroke="#0091ff" stroke-miterlimit="10" stroke-width="2"/><line x1="64.022" y1="375.894" x2="903.482" y2="375.894" fill="#f1f1f2" stroke="#0091ff" stroke-linecap="round" stroke-miterlimit="10" stroke-width="2"/><path d="M636.506,302.632H239.634a.8.8,0,0,1-.8-.8V71.533a.8.8,0,0,1,.8-.8H636.506a.8.8,0,0,1,.8.8v132.1" fill="none" stroke="#0091ff" stroke-linecap="round" stroke-miterlimit="10" stroke-width="2"/><line x1="637.306" y1="210.192" x2="637.306" y2="298.818" fill="none" stroke="#0091ff" stroke-linecap="round" stroke-miterlimit="10" stroke-width="2" stroke-dasharray="0 6"/><path d="M305.488,241.158,379,174.9a4.7,4.7,0,0,1,6.1-.157l40.808,33.139a4.7,4.7,0,0,0,6.2-.246L494.5,148.191a4.7,4.7,0,0,1,6.965.542l69.814,92.425Z" fill="#0091ff"/><circle cx="333.808" cy="143.496" r="25.053" fill="#0091ff"/><circle cx="438.07" cy="186.683" r="38.934" fill="#f1f1f2" stroke="#0091ff" stroke-miterlimit="10" stroke-width="2"/><polygon points="428.948 170.394 428.948 202.971 450.209 186.683 428.948 170.394" fill="#0091ff"/><rect x="652.71" y="70.733" width="110.941" height="64.564" rx="0.8" fill="#f1f1f2" stroke="#0091ff" stroke-miterlimit="10" stroke-width="2"/><rect x="652.71" y="154.401" width="110.941" height="64.564" rx="0.8" fill="#0091ff"/><rect x="652.71" y="238.068" width="110.941" height="64.564" rx="0.8" fill="#f1f1f2" stroke="#0091ff" stroke-miterlimit="10" stroke-width="2"/><path d="M677.812,117.037l16.8-15.141a1.072,1.072,0,0,1,1.395-.036l9.325,7.572a1.072,1.072,0,0,0,1.417-.056L721,95.792a1.074,1.074,0,0,1,1.592.124l15.953,21.121Z" fill="#0091ff"/><circle cx="684.283" cy="94.72" r="5.725" fill="#0091ff"/><path d="M677.812,200.7l16.8-15.141a1.073,1.073,0,0,1,1.395-.036l9.325,7.572a1.072,1.072,0,0,0,1.417-.056L721,179.459a1.074,1.074,0,0,1,1.592.124L738.549,200.7Z" fill="#f1f1f2"/><circle cx="684.283" cy="178.387" r="5.725" fill="#f1f1f2"/><path d="M677.812,284.371l16.8-15.141a1.073,1.073,0,0,1,1.395-.036l9.325,7.573a1.073,1.073,0,0,0,1.417-.057L721,263.127a1.074,1.074,0,0,1,1.592.123l15.953,21.121Z" fill="#0091ff"/><circle cx="684.283" cy="262.054" r="5.725" fill="#0091ff"/><rect x="238.834" y="38.366" width="361.462" height="15.681" rx="7.841" fill="#fff" stroke="#0091ff" stroke-miterlimit="10" stroke-width="2"/><rect x="611.299" y="38.366" width="26.007" height="15.681" rx="7.841" fill="#f1f1f2" stroke="#0091ff" stroke-miterlimit="10" stroke-width="2"/><circle cx="625.184" cy="45.037" r="2.913" fill="#f1f1f2" stroke="#0091ff" stroke-miterlimit="10" stroke-width="2"/><line x1="619.794" y1="50.427" x2="623.124" y2="47.097" fill="#f1f1f2" stroke="#0091ff" stroke-linecap="round" stroke-miterlimit="10" stroke-width="2"/><line x1="277.828" y1="270.35" x2="600.296" y2="270.35" fill="#0091ff" stroke="#0091ff" stroke-linecap="round" stroke-miterlimit="10" stroke-width="2"/><rect x="440.13" y="353.202" width="122.226" height="22.692" fill="#f1f1f2" stroke="#0091ff" stroke-miterlimit="10" stroke-width="2"/><line x1="807.151" y1="321.419" x2="194.566" y2="321.419" fill="#f1f1f2" stroke="#0091ff" stroke-miterlimit="10" stroke-width="2"/><circle cx="501.242" cy="337.391" r="5.945" fill="#0091ff"/><circle cx="501.242" cy="20.284" r="2.363" fill="#0091ff"/><circle cx="477.026" cy="270.365" r="5.177" fill="#f1f1f2" stroke="#0091ff" stroke-miterlimit="10" stroke-width="2"/><rect x="741.004" y="39.256" width="22.647" height="12.06" rx="5.548" fill="#f1f1f2" stroke="#0091ff" stroke-miterlimit="10" stroke-width="2"/><circle cx="757.621" cy="45.286" r="6.03" fill="#0091ff"/><line x1="728.055" y1="42.453" x2="710.333" y2="42.453" fill="#f1f1f2" stroke="#0091ff" stroke-linecap="round" stroke-miterlimit="10" stroke-width="2"/><line x1="728.055" y1="48.8" x2="710.333" y2="48.8" fill="#f1f1f2" stroke="#0091ff" stroke-linecap="round" stroke-miterlimit="10" stroke-width="2"/><circle cx="250.979" cy="46.207" r="3.471" fill="#0091ff"/><circle cx="264.196" cy="46.207" r="3.471" fill="#0091ff"/><circle cx="277.414" cy="46.207" r="3.471" fill="#0091ff"/><circle cx="290.631" cy="46.207" r="3.471" fill="#0091ff"/><circle cx="303.849" cy="46.207" r="3.471" fill="#0091ff"/><rect x="87.544" y="197.038" width="209.017" height="148.697" rx="2.394" transform="translate(-79.333 463.439) rotate(-90)" fill="#0091ff" stroke="#0091ff" stroke-miterlimit="10" stroke-width="1.5"/><rect x="100.814" y="197.038" width="209.017" height="148.697" rx="2.394" transform="translate(-66.064 476.708) rotate(-90)" fill="#f1f1f2" stroke="#0091ff" stroke-miterlimit="10" stroke-width="1.5"/><rect x="153.477" y="194.733" width="103.691" height="57.982" rx="2.293" fill="#f1f1f2" stroke="#0091ff" stroke-miterlimit="10" stroke-width="1.5"/><rect x="153.477" y="263.635" width="103.691" height="57.982" rx="2.293" fill="#0091ff" stroke="#0091ff" stroke-miterlimit="10" stroke-width="1.5"/><path d="M155.769,332.538h99.106a2.293,2.293,0,0,1,2.293,2.293v41.064a0,0,0,0,1,0,0H153.477a0,0,0,0,1,0,0V334.831A2.293,2.293,0,0,1,155.769,332.538Z" fill="#f1f1f2" stroke="#0091ff" stroke-miterlimit="10" stroke-width="1.5"/><path d="M171.227,252.714l26.694-24.06a1.7,1.7,0,0,1,2.216-.057l14.819,12.033a1.706,1.706,0,0,0,2.252-.089l22.656-21.586a1.705,1.705,0,0,1,2.529.2l14.775,19.26v10.207a4.1,4.1,0,0,1-4.095,4.095Z" fill="#0091ff"/><circle cx="181.511" cy="217.251" r="9.097" fill="#0091ff"/><path d="M171.716,322.4l26.694-24.061a1.707,1.707,0,0,1,2.217-.057l14.819,12.034a1.706,1.706,0,0,0,2.251-.089l22.656-21.586a1.706,1.706,0,0,1,2.53.2l14.774,19.26v11.428a2.875,2.875,0,0,1-2.875,2.875Z" fill="#f1f1f2" stroke="#f1f1f2" stroke-miterlimit="10" stroke-width="1.5"/><circle cx="181.511" cy="286.153" r="9.097" fill="#f1f1f2" stroke="#f1f1f2" stroke-miterlimit="10" stroke-width="1.5"/><g clip-path="url(#clip-path)"><path d="M171.227,390.52l26.694-24.061a1.705,1.705,0,0,1,2.216-.057l14.819,12.034a1.707,1.707,0,0,0,2.252-.089l22.656-21.586a1.7,1.7,0,0,1,2.529.2l14.775,19.26v10.207a4.1,4.1,0,0,1-4.095,4.1Z" fill="#0091ff"/><circle cx="181.511" cy="355.056" r="9.097" fill="#0091ff"/></g><circle cx="214.003" cy="179.074" r="4.259" fill="#fff" stroke="#0091ff" stroke-miterlimit="10" stroke-width="1.5"/><path d="M198.316,292.145h16.407a0,0,0,0,1,0,0v148.7a0,0,0,0,1,0,0H198.316a2.394,2.394,0,0,1-2.394-2.394V294.539A2.394,2.394,0,0,1,198.316,292.145Z" transform="translate(-161.171 571.816) rotate(-90)" fill="#f1f1f2" stroke="#0091ff" stroke-miterlimit="10" stroke-width="1.5"/><circle cx="205.322" cy="366.27" r="4.966" fill="#0091ff"/><line x1="203.131" y1="178.936" x2="192.053" y2="178.936" fill="#f1f1f2" stroke="#0091ff" stroke-linecap="round" stroke-miterlimit="10" stroke-width="1.5"/><rect x="153.477" y="263.635" width="103.691" height="57.982" rx="2.293" fill="none" stroke="#0091ff" stroke-miterlimit="10" stroke-width="1.5"/><path d="M347.3,233.763V372.808c0,1.6,7.4,2.89,5.8,2.89H269.291a2.89,2.89,0,0,1-2.89-2.89V233.763a2.89,2.89,0,0,1,2.89-2.891H353.1C354.7,230.872,347.3,232.166,347.3,233.763Z" fill="#0091ff" stroke="#0091ff" stroke-miterlimit="10" stroke-width="1.5"/><rect x="243.633" y="262.835" width="144.825" height="80.9" rx="2.394" transform="translate(12.76 619.33) rotate(-90)" fill="#f1f1f2" stroke="#0091ff" stroke-miterlimit="10" stroke-width="1.5"/><circle cx="316.045" cy="358.078" r="6.293" fill="#f1f1f2" stroke="#0091ff" stroke-miterlimit="10" stroke-width="1.5"/><circle cx="316.045" cy="358.078" r="6.293" fill="#fff" stroke="#0091ff" stroke-miterlimit="10" stroke-width="1.5"/><line x1="308.82" y1="239.271" x2="323.271" y2="239.271" fill="#f1f1f2" stroke="#0091ff" stroke-linecap="round" stroke-miterlimit="10" stroke-width="1.5"/><path d="M288.814,285.209l15.063-13.577a.961.961,0,0,1,1.25-.032l8.362,6.791a.963.963,0,0,0,1.271-.051l12.784-12.18a.963.963,0,0,1,1.428.111l14.305,18.938Z" fill="#0091ff"/><circle cx="294.617" cy="265.198" r="5.134" fill="#0091ff"/><line x1="288.814" y1="294.623" x2="343.277" y2="294.623" fill="#f1f1f2" stroke="#0091ff" stroke-linecap="round" stroke-miterlimit="10" stroke-width="1.5"/><line x1="288.814" y1="303.049" x2="332.308" y2="303.049" fill="#f1f1f2" stroke="#0091ff" stroke-linecap="round" stroke-miterlimit="10" stroke-width="1.5"/><line x1="288.814" y1="319.31" x2="344.95" y2="319.31" fill="#f1f1f2" stroke="#0091ff" stroke-linecap="round" stroke-miterlimit="10" stroke-width="1.5"/><line x1="288.814" y1="326.539" x2="344.95" y2="326.539" fill="#f1f1f2" stroke="#0091ff" stroke-linecap="round" stroke-miterlimit="10" stroke-width="1.5"/><line x1="288.814" y1="333.768" x2="344.95" y2="333.768" fill="#f1f1f2" stroke="#0091ff" stroke-linecap="round" stroke-miterlimit="10" stroke-width="1.5"/><line x1="288.814" y1="340.996" x2="344.95" y2="340.996" fill="#f1f1f2" stroke="#0091ff" stroke-linecap="round" stroke-miterlimit="10" stroke-width="1.5"/><line x1="289.484" y1="251.484" x2="322.339" y2="251.484" fill="#f1f1f2" stroke="#0091ff" stroke-linecap="round" stroke-miterlimit="10" stroke-width="1.5"/><path d="M646.023,299.278h31.44a7.106,7.106,0,0,1,7.106,7.106v62.4a7.106,7.106,0,0,1-7.106,7.106h-31.44a0,0,0,0,1,0,0V299.278A0,0,0,0,1,646.023,299.278Z" transform="translate(1330.592 675.172) rotate(180)" fill="#0091ff" stroke="#0091ff" stroke-miterlimit="10" stroke-width="2"/><rect x="693.819" y="299.278" width="133.383" height="76.616" fill="#f1f1f2" stroke="#0091ff" stroke-miterlimit="10" stroke-width="2"/><path d="M827.2,299.278h31.44a7.106,7.106,0,0,1,7.106,7.106v62.4a7.106,7.106,0,0,1-7.106,7.106H827.2a0,0,0,0,1,0,0V299.278A0,0,0,0,1,827.2,299.278Z" fill="#f1f1f2" stroke="#0091ff" stroke-miterlimit="10" stroke-width="2"/><path d="M655.272,299.278h31.44a7.106,7.106,0,0,1,7.106,7.106v62.4a7.106,7.106,0,0,1-7.106,7.106h-31.44a0,0,0,0,1,0,0V299.278A0,0,0,0,1,655.272,299.278Z" transform="translate(1349.091 675.172) rotate(180)" fill="#f1f1f2" stroke="#0091ff" stroke-miterlimit="10" stroke-width="2"/><circle cx="674.545" cy="319.397" r="8.043" fill="#0091ff"/><circle cx="846.475" cy="347.288" r="8.043" fill="#fff" stroke="#0091ff" stroke-miterlimit="10" stroke-width="2"/><circle cx="674.545" cy="340.892" r="2.854" fill="#0091ff"/><circle cx="674.545" cy="353.683" r="2.854" fill="#0091ff"/><circle cx="680.941" cy="347.288" r="2.854" fill="none" stroke="#0091ff" stroke-miterlimit="10" stroke-width="2"/><circle cx="668.15" cy="347.288" r="2.854" fill="none" stroke="#0091ff" stroke-miterlimit="10" stroke-width="2"/><circle cx="846.475" cy="313.001" r="2.854" fill="none" stroke="#0091ff" stroke-miterlimit="10" stroke-width="2"/><circle cx="846.475" cy="325.792" r="2.854" fill="none" stroke="#0091ff" stroke-miterlimit="10" stroke-width="2"/><circle cx="852.87" cy="319.397" r="2.854" fill="#0091ff"/><circle cx="840.079" cy="319.397" r="2.854" fill="#0091ff"/><line x1="843.621" y1="365.464" x2="849.329" y2="365.464" fill="#f1f1f2" stroke="#0091ff" stroke-linecap="round" stroke-miterlimit="10" stroke-width="2"/><line x1="671.691" y1="365.464" x2="677.399" y2="365.464" fill="#f1f1f2" stroke="#0091ff" stroke-linecap="round" stroke-miterlimit="10" stroke-width="2"/><path d="M719.463,358.2l22.7-20.465a1.451,1.451,0,0,1,1.886-.049l12.6,10.236a1.451,1.451,0,0,0,1.915-.076l19.271-18.361a1.451,1.451,0,0,1,2.151.168L801.557,358.2Z" fill="#0091ff"/><circle cx="728.21" cy="328.031" r="7.738" fill="#0091ff"/><circle cx="889.19" cy="45.769" r="45.769" fill="#f1f1f2"/><polygon points="906.48 44.609 906.48 60.627 868.481 60.627 868.481 55.644 881.148 50.6 893.814 52.133 906.48 44.609" fill="#fff"/><line x1="868.481" y1="52.895" x2="868.481" y2="59.944" fill="none" stroke="#f47928" stroke-linecap="round" stroke-miterlimit="10" stroke-width="1.5"/><line x1="881.148" y1="44.609" x2="881.148" y2="59.944" fill="none" stroke="#f47928" stroke-linecap="round" stroke-miterlimit="10" stroke-width="1.5"/><line x1="893.814" y1="47.126" x2="893.814" y2="59.944" fill="none" stroke="#f47928" stroke-linecap="round" stroke-miterlimit="10" stroke-width="1.5"/><line x1="906.48" y1="34.768" x2="906.48" y2="59.944" fill="none" stroke="#f47928" stroke-linecap="round" stroke-miterlimit="10" stroke-width="1.5"/><line x1="888.179" y1="67.378" x2="906.48" y2="67.378" fill="#f1f1f2" stroke="#0091ff" stroke-linecap="round" stroke-miterlimit="10" stroke-width="1.5"/><line x1="868.481" y1="67.378" x2="888.179" y2="67.378" fill="none" stroke="#0091ff" stroke-linecap="round" stroke-miterlimit="10" stroke-width="2" stroke-dasharray="0 4"/><polyline points="867.256 44.609 881.148 33.3 893.814 37.129 906.48 24.824" fill="none" stroke="#0091ff" stroke-linecap="round" stroke-miterlimit="10" stroke-width="1.5"/><circle cx="868.242" cy="44.483" r="3.973" fill="#0091ff"/><circle cx="881.148" cy="33.565" r="3.973" fill="#0091ff"/><circle cx="893.814" cy="37.538" r="3.973" fill="#0091ff"/><circle cx="906.48" cy="24.824" r="3.973" fill="#0091ff"/><circle cx="74.537" cy="45.769" r="45.769" fill="#f1f1f2"/><circle cx="931.114" cy="202.105" r="45.769" fill="#f1f1f2"/><path d="M941.422,186.225a13.942,13.942,0,0,1-6.4,15.487" fill="none" stroke="#0091ff" stroke-linecap="round" stroke-miterlimit="10" stroke-width="2" stroke-dasharray="0 4"/><path d="M919.844,201.057A13.928,13.928,0,1,1,940.081,182.9" fill="none" stroke="#f47928" stroke-linecap="round" stroke-miterlimit="10" stroke-width="1.5"/><path d="M925.034,216.263V191.682a3.11,3.11,0,0,1,3.111-3.11h0a3.11,3.11,0,0,1,3.111,3.11V204.6A3.109,3.109,0,0,0,933,207.391l15.915,5.312a3.112,3.112,0,0,1,1.741,2.793v9.5a2.261,2.261,0,0,1-2.261,2.261H921.714a3.107,3.107,0,0,1-2.158-.871l-7.028-6.772a3.111,3.111,0,0,1-.185-4.287l.736-.842a3.112,3.112,0,0,1,4.461-.232l3.868,3.595A2.157,2.157,0,0,0,925.034,216.263Z" fill="#fff" stroke="#0091ff" stroke-linecap="round" stroke-miterlimit="10" stroke-width="1.5"/><line x1="931.279" y1="202.683" x2="931.279" y2="214.496" fill="#f1f1f2" stroke="#0091ff" stroke-linecap="round" stroke-miterlimit="10" stroke-width="1.5"/><line x1="937.214" y1="209.008" x2="937.214" y2="214.496" fill="#f1f1f2" stroke="#0091ff" stroke-linecap="round" stroke-miterlimit="10" stroke-width="1.5"/><line x1="943.313" y1="211" x2="943.313" y2="214.496" fill="#f1f1f2" stroke="#0091ff" stroke-linecap="round" stroke-miterlimit="10" stroke-width="1.5"/><circle cx="45.769" cy="199.286" r="45.769" fill="#f1f1f2"/><path d="M72.691,204.447s-12.015,14.747-26.837,14.747-26.837-14.747-26.837-14.747S31.032,189.7,45.854,189.7,72.691,204.447,72.691,204.447Z" fill="#fff" stroke="#0091ff" stroke-linecap="round" stroke-miterlimit="10" stroke-width="1.5"/><circle cx="45.854" cy="204.447" r="14.484" fill="#f1f1f2"/><path d="M59.248,209.165A19.659,19.659,0,0,0,59.3,198.8" fill="none" stroke="#f47928" stroke-linecap="round" stroke-miterlimit="10" stroke-width="2" stroke-dasharray="0 4"/><path d="M58.832,197.444a14.747,14.747,0,1,0-5.975,19.981l-2.006.9a14.682,14.682,0,0,0,7.679-6.338" fill="none" stroke="#0091ff" stroke-linecap="round" stroke-miterlimit="10" stroke-width="1.5"/><circle cx="45.854" cy="204.447" r="9.99" fill="#0091ff"/><line x1="34.04" y1="181.4" x2="35.597" y2="185.675" fill="none" stroke="#f47928" stroke-linecap="round" stroke-miterlimit="10" stroke-width="1.5"/><line x1="45.731" y1="179.238" x2="45.731" y2="183.978" fill="none" stroke="#f47928" stroke-linecap="round" stroke-miterlimit="10" stroke-width="1.5"/><line x1="57.476" y1="181.697" x2="55.865" y2="185.675" fill="none" stroke="#f47928" stroke-linecap="round" stroke-miterlimit="10" stroke-width="1.5"/><line x1="67.575" y1="187.158" x2="64.792" y2="190.475" fill="none" stroke="#f47928" stroke-linecap="round" stroke-miterlimit="10" stroke-width="1.5"/><line x1="23.888" y1="187.158" x2="26.671" y2="190.475" fill="none" stroke="#f47928" stroke-linecap="round" stroke-miterlimit="10" stroke-width="1.5"/><path d="M45.769,252.255v29.01a18.013,18.013,0,0,0,18.013,18.013H117.7" fill="none" stroke="#0091ff" stroke-linecap="round" stroke-miterlimit="10" stroke-width="2" stroke-dasharray="0 6"/><path d="M66.007,32.141a13.835,13.835,0,0,1,25.154,1.966,9.416,9.416,0,1,1,2.261,18.556H80.874c4.7-5.655.842-14.824-6.337-12.892A14.424,14.424,0,0,0,66.007,32.141Z" fill="#fff"/><path d="M87.942,52.663h5.48a9.421,9.421,0,1,0-2.261-18.556,13.835,13.835,0,0,0-25.154-1.966" fill="none" stroke="#0091ff" stroke-linecap="round" stroke-miterlimit="10" stroke-width="1.5"/><path d="M72.077,54.039h4.206A7.23,7.23,0,1,0,74.547,39.8a10.619,10.619,0,0,0-19.986,0,7.227,7.227,0,1,0-1.735,14.242h4.737" fill="none" stroke="#0091ff" stroke-linecap="round" stroke-miterlimit="10" stroke-width="1.5"/><line x1="64.183" y1="49.936" x2="64.183" y2="67.695" fill="#f1f1f2" stroke="#f47928" stroke-linecap="round" stroke-miterlimit="10" stroke-width="2" stroke-dasharray="0 4"/><polyline points="60.66 48.693 64.183 45.323 67.705 48.693" fill="none" stroke="#f47928" stroke-linecap="round" stroke-linejoin="round" stroke-width="1.5"/><line x1="79.99" y1="58.414" x2="79.99" y2="66.113" fill="#f1f1f2" stroke="#f47928" stroke-linecap="round" stroke-linejoin="round" stroke-width="1.5"/><polyline points="76.467 61.282 79.99 57.912 83.512 61.282" fill="none" stroke="#f47928" stroke-linecap="round" stroke-linejoin="round" stroke-width="1.5"/><line x1="127.505" y1="45.769" x2="165.173" y2="45.769" fill="none" stroke="#0091ff" stroke-linecap="round" stroke-miterlimit="10" stroke-width="2" stroke-dasharray="0 6"/></g></g></svg>