<svg xmlns="http://www.w3.org/2000/svg" viewBox="0 0 55.5314 17.5748"><title>frames-flattering</title><g id="Layer_2" data-name="Layer 2"><g id="Assets"><path d="M49.0581,2.5464c-.248-.7232-1.0591-.747-1.7-.7957-1.038-.0788-2.0762-.1524-3.1159-.2051q-3.3294-.1691-6.6652-.1186-2.3733.036-4.7431.1831a11.8051,11.8051,0,0,0-4.1276.72c-.2385.1041-.47.224-.7.3461l-.1259.0672a8.5522,8.5522,0,0,1-1.9043.8859c-.0775.0193-1.3924.2585-1.3924.2246,0,.0339-1.3149-.2053-1.3924-.2246a8.5543,8.5543,0,0,1-1.9043-.8859l-.1259-.0672c-.23-.1221-.4611-.242-.7-.3461a11.805,11.805,0,0,0-4.1275-.72q-2.3691-.1472-4.7432-.1831-3.3333-.05-6.6652.1186c-1.04.0527-2.0779.1263-3.1159.2051-.6407.0487-1.4519.0725-1.7.7957C-.2616,3.638.3882,4.6551.8539,5.5924A12.7806,12.7806,0,0,1,1.7665,8.39a20.35,20.35,0,0,0,1.6627,5.2755,5.91,5.91,0,0,0,2.0932,2.285,9.3825,9.3825,0,0,0,3.767.906,24.144,24.144,0,0,0,3.3087.2172c2.0871-.0222,4.6827-.2592,6.35-1.6724,0,0,2.4287-2.0588,3.4826-6.78,0,0,.1833-2.11,2.1537-2.11s2.1537,2.11,2.1537,2.11c1.0539,4.7214,3.4825,6.78,3.4825,6.78,1.6672,1.4133,4.2628,1.65,6.35,1.6725a24.144,24.144,0,0,0,3.3087-.2172,9.3821,9.3821,0,0,0,3.767-.906,5.911,5.911,0,0,0,2.0933-2.285A20.35,20.35,0,0,0,47.4019,8.39a12.7806,12.7806,0,0,1,.9126-2.7976C48.78,4.6551,49.43,3.638,49.0581,2.5464ZM19.6353,12.9727q-.0686.1291-.1435.2548c-2.1823,3.6449-7.55,3.1884-11.1088,2.5593a4.7207,4.7207,0,0,1-3.4976-2.0586c-1.48-2.2837-1.4813-5.28-1.5633-7.904A2.544,2.544,0,0,1,4.36,3.4992a3.61,3.61,0,0,1,1.3412-.5,13.3365,13.3365,0,0,1,1.7743-.1807,48.94,48.94,0,0,1,8.8324.2811c1.3852.1585,3.0185.41,4.0345,1.4757C22.4071,6.74,20.8105,10.7528,19.6353,12.9727ZM45.8464,5.8242c-.082,2.6239-.0833,5.62-1.5634,7.904a4.7205,4.7205,0,0,1-3.4976,2.0586c-3.5593.6291-8.9265,1.0856-11.1088-2.5593q-.075-.1254-.1434-.2548c-1.1753-2.22-2.7718-6.2326-.7073-8.3976C29.8419,3.51,31.4753,3.2579,32.86,3.0994a48.94,48.94,0,0,1,8.8324-.2811,13.3365,13.3365,0,0,1,1.7743.1807,3.61,3.61,0,0,1,1.3412.5A2.5443,2.5443,0,0,1,45.8464,5.8242Z" transform="translate(0.5)" style="fill:#d8d1ca;stroke:#d8d1ca;stroke-miterlimit:10"/><polyline points="40.756 5.89 45.199 10.333 54.824 0.707" style="fill:none;stroke:#0099a8;stroke-miterlimit:10;stroke-width:2px"/></g></g></svg>