<svg xmlns="http://www.w3.org/2000/svg" viewBox="0 0 55.531 17.575"><g data-name="Layer 2" stroke-miterlimit="10"><path d="M49.558 2.546c-.248-.723-1.059-.747-1.7-.795a124.274 124.274 0 0 0-3.116-.205q-3.33-.17-6.665-.119-2.373.036-4.743.183a11.805 11.805 0 0 0-4.128.72c-.238.104-.47.224-.7.346l-.126.067a8.552 8.552 0 0 1-1.904.886c-.077.02-1.392.259-1.392.225 0 .034-1.315-.205-1.393-.225a8.554 8.554 0 0 1-1.904-.886l-.126-.067c-.23-.122-.461-.242-.7-.346a11.805 11.805 0 0 0-4.127-.72q-2.37-.147-4.744-.183-3.333-.05-6.665.119c-1.04.052-2.078.126-3.116.205-.64.048-1.452.072-1.7.795-.37 1.092.28 2.11.745 3.046a12.78 12.78 0 0 1 .912 2.798 20.35 20.35 0 0 0 1.663 5.276 5.91 5.91 0 0 0 2.093 2.285 9.383 9.383 0 0 0 3.767.906 24.144 24.144 0 0 0 3.31.217c2.086-.023 4.682-.26 6.35-1.673 0 0 2.428-2.059 3.482-6.78 0 0 .183-2.11 2.153-2.11s2.154 2.11 2.154 2.11c1.054 4.722 3.483 6.78 3.483 6.78 1.667 1.414 4.262 1.65 6.35 1.673a24.144 24.144 0 0 0 3.308-.217 9.382 9.382 0 0 0 3.767-.906 5.911 5.911 0 0 0 2.094-2.285 20.35 20.35 0 0 0 1.662-5.276 12.78 12.78 0 0 1 .912-2.798c.466-.937 1.116-1.954.744-3.046zM20.135 12.973q-.068.129-.143.254c-2.182 3.645-7.55 3.189-11.109 2.56a4.72 4.72 0 0 1-3.498-2.059c-1.48-2.284-1.48-5.28-1.563-7.904A2.544 2.544 0 0 1 4.86 3.5 3.61 3.61 0 0 1 6.201 3a13.336 13.336 0 0 1 1.775-.18 48.94 48.94 0 0 1 8.832.28c1.385.16 3.018.41 4.034 1.476 2.065 2.165.469 6.178-.707 8.398zm26.211-7.149c-.082 2.624-.083 5.62-1.563 7.904a4.72 4.72 0 0 1-3.498 2.059c-3.559.629-8.926 1.085-11.108-2.56q-.075-.125-.144-.254c-1.175-2.22-2.772-6.233-.707-8.398 1.016-1.065 2.65-1.317 4.034-1.476a48.94 48.94 0 0 1 8.832-.28 13.336 13.336 0 0 1 1.775.18 3.61 3.61 0 0 1 1.34.5 2.544 2.544 0 0 1 1.04 2.325z" fill="#d8d1ca" stroke="#d8d1ca"/><path fill="none" stroke="#0099a8" stroke-width="2px" d="M40.756 5.89L45.199 10.333 54.824 0.707"/></g></svg>