<svg viewBox="0 0 545.205 383.712" xmlns="http://www.w3.org/2000/svg" xmlns:xlink="http://www.w3.org/1999/xlink"><clipPath id="a"><circle cx="513.93" cy="98.5" r="29.032" transform="matrix(.70710678 -.70710678 .70710678 .70710678 80.877 392.254)"/></clipPath><path d="m106.399 14.708h128.714v92.059h-128.714z" fill="#fff" opacity=".2" transform="matrix(.9678498 -.25152885 .25152885 .9678498 -9.787 44.904)"/><path d="m136.238 284.477-54.104 25.789 49.386 33.961z" fill="#fff" opacity=".2"/><circle cx="18.69" cy="123.706" fill="#fff" r="18.69"/><path d="m13.849 125.788a4.613 4.613 0 0 0 4.189 4.788v-6.284l-1.371-.274c-2.2-.449-3.741-1.746-3.741-4.115 0-2.569 1.92-4.314 5.112-4.364v-2.245h1.222v2.319a5.2 5.2 0 0 1 4.888 5.562l-1.421.124c-.05-2.469-1.322-4.04-3.467-4.439v6.21l1.048.2c2.718.549 4.164 1.646 4.164 4.14 0 2.669-2.194 4.29-5.212 4.414v2.295h-1.222v-2.319c-3.242-.274-5.586-2.344-5.586-5.885zm3.74-3.067.449.1v-6.06c-2.369.049-3.641 1.172-3.641 3.092.003 1.771 1.147 2.469 3.192 2.868zm1.671 1.82v6.085c2.195-.124 3.691-1.247 3.691-3.092 0-1.6-.923-2.444-3.142-2.893z" fill="#febc11"/><g fill="#fff"><circle cx="27.992" cy="288.087" opacity=".2" r="15.54"/><circle cx="447.279" cy="165.754" opacity=".2" r="79.658"/><circle cx="464.988" cy="284.28" opacity=".2" r="23.638"/><circle cx="111.18" cy="116.623" r="52.621"/></g><circle cx="111.18" cy="116.623" r="22.52"/><path d="m100.414 156.664a2.5 2.5 0 0 1 -1.99-.987c-.751-.986-.751-.986.983-7.244l6.7-24.173h-16.275a2.5 2.5 0 0 1 -2-4l32.115-42.679a2.5 2.5 0 0 1 4.436 2.058c-.013.058-.013.058-8.132 29.35h16.276a2.5 2.5 0 0 1 2 4l-32.116 42.678a2.5 2.5 0 0 1 -1.991 1z" fill="#febc11" fill-rule="evenodd"/><path d="m121.947 79.081-8.981 32.405h19.563l-32.116 42.678 8.981-32.4h-19.562l32.115-42.679m0-5h-.013a5 5 0 0 0 -3.982 1.994l-32.115 42.674a5 5 0 0 0 3.995 8.007h12.988l-7.22 26.068a5 5 0 0 0 8.813 4.342l32.116-42.678a5 5 0 0 0 -4-8.006h-12.989l2.735-9.867 3.087-11.139 1.018-3.671c.585-2.112 1.048-3.781-.453-5.755a5 5 0 0 0 -3.98-1.973z" fill="#fff"/><circle cx="417.689" cy="78.351" fill="#fff" r="42.002"/><path d="m435.5 87.327-17.872-17.875 8.075-8.075a12.638 12.638 0 0 1 17.874 0 12.64 12.64 0 0 1 0 17.875z" stroke="#fff" stroke-miterlimit="10" stroke-width="5"/><path d="m438.285 84.544a3.875 3.875 0 0 1 -5.478 0l-15.135-15.136-8-8a12.638 12.638 0 0 0 -17.874 0 12.64 12.64 0 0 0 0 17.875l8 8 .054.054.024.024 17.8 17.8z" fill="#febc11" stroke="#fff" stroke-miterlimit="10" stroke-width="5"/><path d="m187.86 381.212.371-2.826c4.713-35.944 7.685-66.023-.282-98.519-4.472-18.243-12.484-33.472-20.966-49.6-2.506-4.764-5.1-9.69-7.595-14.7a131.15 131.15 0 0 1 -13.866-50.488 126.878 126.878 0 0 1 34.578-95.645 128.579 128.579 0 0 1 93.274-40.506 128.1 128.1 0 0 1 128.026 123.972l.061.633.836 12.536a37.658 37.658 0 0 0 3.367 13.263l19.446 42.323c1.756 3.028 3.505 9.627-2.048 13.792-2.315 1.736-5.4 2.307-8.392 2.858-6.076 1.122-8.551 2.018-8.551 6.44a17.594 17.594 0 0 0 1.971 7.99c.83 1.81 1.688 3.682.9 5.731-.682 1.768-2.337 3.079-5.714 4.527-3.794 1.626-3.981 2.837-3.983 2.849-.032.271.416.757.511.827.6.487 5.188 4.363 5.18 9.28a8.341 8.341 0 0 1 -3.448 6.585c-1.546 1.25-3 2.3-4.286 3.224-4.577 3.3-5.5 4.22-4.859 6.489a59.5 59.5 0 0 0 2.841 8.131l.048.11c.138.336 3.35 8.314.32 15.055a13.7 13.7 0 0 1 -8.436 7.334c-4.445 1.552-10.049 2.108-15.982 2.7-12.02 1.192-25.643 2.544-36.632 12-8.4 7.225-11.928 32.275-12.58 41.317l-.168 2.32h-133.942z"/><path d="m273.372 31.428a125.6 125.6 0 0 1 125.553 122.249l.045.022.836 12.536a40.292 40.292 0 0 0 3.59 14.141l19.5 42.438s3.987 6.646-1.329 10.633-17.943.665-17.943 11.3 7.974 11.962-1.33 15.95-3.987 7.975-3.987 7.975 8.175 6.654 1.66 11.92-11.5 6.93-9.979 12.336a60.963 60.963 0 0 0 2.982 8.512s6.025 14.66-6.627 19.079-36.149.3-53.421 15.162c-11.034 9.5-13.443 43.033-13.443 43.033h-128.77c4.486-34.209 7.9-65.88-.332-99.44-5.907-24.1-17.972-43.176-28.75-64.82a129.373 129.373 0 0 1 -13.609-49.529c-4.5-72.631 53.645-133.5 125.354-133.495m0-5a128.958 128.958 0 0 0 -52.632 11.13 131.74 131.74 0 0 0 -69.857 74.257 129.346 129.346 0 0 0 -7.855 53.415 133.628 133.628 0 0 0 14.123 51.449c2.51 5.04 5.107 9.977 7.619 14.753 8.409 15.985 16.351 31.083 20.751 49.028 7.864 32.076 4.909 61.919.231 97.6l-.741 5.65h139.121l.334-4.642c.881-12.17 4.841-33.685 11.716-39.6 10.392-8.941 23.6-10.251 35.249-11.407 6.085-.6 11.834-1.175 16.56-2.824a16.316 16.316 0 0 0 9.891-8.669c3.407-7.581.1-16.087-.288-17.032l-.047-.112-.052-.111a58.066 58.066 0 0 1 -2.7-7.745 2.043 2.043 0 0 1 -.088-.462c.338-.68 2.452-2.2 4-3.321 1.311-.944 2.8-2.014 4.4-3.308a10.759 10.759 0 0 0 4.376-8.524c.007-4.5-2.86-8.1-4.7-9.95a16.149 16.149 0 0 1 1.474-.714c2.972-1.274 5.884-2.873 7.061-5.924 1.17-3.032-.01-5.6-.957-7.672a15.031 15.031 0 0 1 -1.744-6.949c0-2.136 0-2.78 6.5-3.982 3.119-.575 6.654-1.228 9.438-3.316a11.644 11.644 0 0 0 4.6-11.572 16.724 16.724 0 0 0 -1.817-5.342l-19.398-42.246a35.16 35.16 0 0 1 -3.14-12.388l-.836-12.536-.078-1.171a130.6 130.6 0 0 0 -130.514-125.765z" fill="#febc11"/><circle cx="33.229" cy="199.625" fill="#fff" r="31.658"/><path d="m51.411 210.258h-12.386v-13.403l12.386 2.81z" fill="#febc11"/><path d="m42.627 200.736v6.022h5.182v-4.846z"/><path d="m37.785 183.453v26.805h-21.197v-17.24z" fill="#febc11"/><path d="m39.73 180.619-25.968 11.718v1.991l25.968-11.719z"/><path d="m29.02 192.266h5.182v4.092h-5.182z"/><path d="m29.02 200.534h5.182v6.225h-5.182z"/><path d="m20.491 194.605v1.753h5.181v-4.092z"/><path d="m52.697 197.951-13.672-3.102v2.014l13.672 3.102z"/><path d="m20.491 201.678h5.182v8.828h-5.182z" fill="#fff"/><path d="m13.762 213.785h38.935" fill="none" stroke="#000" stroke-miterlimit="10" stroke-width="3"/><circle cx="150.369" cy="247.147" fill="#fff" r="50.715"/><path d="m115.815 221.182h24.642l22.923 40.061h-24.642z" stroke="#fff" stroke-miterlimit="10" stroke-width="5"/><path d="m184.923 221.182h-24.642l-22.923 40.061h24.642z" fill="#febc11" stroke="#fff" stroke-miterlimit="10" stroke-width="5"/><circle cx="150.369" cy="262.348" fill="#febc11" r="17.536" stroke="#fff" stroke-miterlimit="10" stroke-width="5"/><path d="m153.877 263.409 5.675-4.123h-7.015l-2.168-6.672-2.168 6.672h-7.015l5.675 4.123-2.167 6.672 5.675-4.123 5.675 4.123z" fill="#fff"/><circle cx="513.93" cy="98.5" fill="#fff" r="29.032" transform="matrix(.70710678 -.70710678 .70710678 .70710678 80.877 392.254)"/><g clip-path="url(#a)"><path d="m501.752 96.2a7.886 7.886 0 1 1 7.886-7.885 7.894 7.894 0 0 1 -7.886 7.885z" fill="#febc11"/><path d="m501.752 81.924a6.386 6.386 0 1 1 -6.385 6.386 6.386 6.386 0 0 1 6.385-6.386m0-3a9.386 9.386 0 1 0 9.386 9.386 9.4 9.4 0 0 0 -9.386-9.386z" fill="#fff"/><path d="m497.759 88.647a10.846 10.846 0 0 1 -2.58-.32l-1.438-.352.333-1.442a7.874 7.874 0 0 1 12.237-4.652l1.207.857-.841 1.219a10.846 10.846 0 0 1 -8.918 4.69z"/><path d="m501.752 81.924a6.354 6.354 0 0 1 3.69 1.18 9.271 9.271 0 0 1 -9.906 3.766 6.383 6.383 0 0 1 6.216-4.946m0-3a9.337 9.337 0 0 0 -9.139 7.271l-.666 2.885 2.875.7a12.273 12.273 0 0 0 13.089-4.975l1.683-2.437-2.415-1.714a9.331 9.331 0 0 0 -5.427-1.734z" fill="#fff"/><path d="m526.174 101.335c-5.956 0-9.833 2.156-12.244 5.663-2.411-3.507-6.287-5.663-12.243-5.663-12.239 0-15.7 9.1-15.7 20.328s7.029 20.328 15.7 20.328c4.951 0 9.366-2.969 12.243-7.605 2.878 4.636 7.293 7.605 12.244 7.605 8.671 0 15.7-9.1 15.7-20.328s-3.461-20.328-15.7-20.328z" stroke="#febc11" stroke-miterlimit="10" stroke-width="3"/><ellipse cx="513.931" cy="130.049" fill="#febc11" rx="9.757" ry="12.633"/><path d="m513.93 113.753a6.844 6.844 0 1 1 6.845-6.844 6.852 6.852 0 0 1 -6.845 6.844z" fill="#febc11"/><path d="m513.93 101.565a5.344 5.344 0 1 1 -5.344 5.344 5.345 5.345 0 0 1 5.344-5.344m0-3a8.344 8.344 0 1 0 8.345 8.344 8.354 8.354 0 0 0 -8.345-8.344z" fill="#fff"/><path d="m526.174 96.2a7.886 7.886 0 1 1 7.886-7.885 7.895 7.895 0 0 1 -7.886 7.885z" fill="#febc11"/><path d="m526.174 81.924a6.386 6.386 0 1 1 -6.386 6.386 6.386 6.386 0 0 1 6.386-6.386m0-3a9.386 9.386 0 1 0 9.386 9.386 9.4 9.4 0 0 0 -9.386-9.386z" fill="#fff"/><path d="m522.181 88.647a10.846 10.846 0 0 1 -2.58-.32l-1.438-.352.333-1.442a7.873 7.873 0 0 1 12.236-4.652l1.207.857-.841 1.219a10.842 10.842 0 0 1 -8.917 4.69z"/><path d="m526.174 81.924a6.354 6.354 0 0 1 3.69 1.18 9.273 9.273 0 0 1 -9.907 3.766 6.385 6.385 0 0 1 6.217-4.946m0-3a9.338 9.338 0 0 0 -9.14 7.271l-.666 2.885 2.876.7a12.272 12.272 0 0 0 13.088-4.975l1.683-2.437-2.415-1.71a9.328 9.328 0 0 0 -5.426-1.734z" fill="#fff"/></g><circle cx="274.665" cy="148.336" fill="#febc11" r="66.655"/><path d="m274.7 212.491a64.487 64.487 0 0 1 -59.311-39.667l31.767-18.341 19.275 11.129 36.725-21.2 33.789 19.509a64.533 64.533 0 0 1 -62.245 48.57z"/><path d="m303.157 147.3 30.88 17.829a61.679 61.679 0 0 1 -59.337 44.862 61.682 61.682 0 0 1 -56.132-36.116l28.588-16.5 16.775 9.685 2.5 1.444 2.5-1.444zm0-5.773-36.725 21.2-19.275-11.127-34.883 20.14a66.671 66.671 0 0 0 127.526-9.059l-36.646-21.158z" fill="#febc11"/><path d="m269.656 109.307v15.741" fill="#febc11"/><path d="m269.656 109.307v15.741" fill="#febc11"/><path d="m247.254 160.411v-43.967" fill="#fff" stroke="#000" stroke-miterlimit="10" stroke-width="5"/><path d="m282.776 125.375-17.343 7.137v-15.74l17.343-7.137z" fill="#fff"/><path d="m269.656 125.048-17.343 7.137v-15.741l17.343-7.137z" fill="#fff"/><path d="m265.433 126.786 4.223-1.738-4.223 7.464z"/><circle cx="461.445" cy="160.067" fill="#fff" r="27.406"/><path d="m454.347 163.121c.146 4.132 2.633 6.582 6.143 7.021v-9.215l-2.011-.4c-3.218-.658-5.485-2.56-5.485-6.033 0-3.767 2.816-6.327 7.5-6.4v-3.294h1.792v3.4c4.5.585 7.168 3.51 7.168 8.155l-2.085.182c-.073-3.62-1.938-5.924-5.083-6.509v9.106l1.536.292c3.986.805 6.107 2.414 6.107 6.071 0 3.913-3.218 6.289-7.643 6.472v3.365h-1.796v-3.4c-4.754-.4-8.191-3.438-8.191-8.63zm5.485-4.5.658.146v-8.886c-3.474.073-5.339 1.719-5.339 4.534 0 2.599 1.682 3.623 4.681 4.208zm2.45 2.669v8.923c3.218-.183 5.412-1.828 5.412-4.534 0-2.341-1.353-3.584-4.607-4.242z" fill="#231f20"/><circle cx="502.862" cy="242.125" fill="#fff" r="42.344"/><circle cx="502.862" cy="242.125" fill="none" r="22.833" stroke="#febc11" stroke-miterlimit="10" stroke-width="3"/><circle cx="502.862" cy="242.125" fill="none" r="14.512" stroke="#000" stroke-miterlimit="10" stroke-width="3"/><circle cx="502.862" cy="242.125" fill="none" r="6.192" stroke="#febc11" stroke-miterlimit="10" stroke-width="3"/><path d="m502.862 242.125 24.503-24.503" fill="none" stroke="#fff" stroke-linecap="round" stroke-miterlimit="10" stroke-width="3"/><path d="m528 216.987-2.337-5.301-6.841 6.84 2.337 5.302 5.302 2.337 6.84-6.84z" fill="#febc11" fill-rule="evenodd"/><path d="m519.323 225.664 9.775-9.775" fill="none" stroke="#fff" stroke-miterlimit="10" stroke-width="3"/><path d="m484.749 19.506h23.843v23.843h-23.843z" fill="#fff" opacity=".2" transform="matrix(.70710678 -.70710678 .70710678 .70710678 123.249 360.404)"/></svg>