<svg xmlns="http://www.w3.org/2000/svg" xmlns:xlink="http://www.w3.org/1999/xlink" viewBox="0 0 545.205 383.712"><defs><clipPath id="clip-path"><circle cx="513.93" cy="98.5" r="29.032" transform="translate(80.877 392.254) rotate(-45)" fill="#fff"/></clipPath></defs><title>img-intro</title><g id="Layer_2" data-name="Layer 2"><g id="G_R_A_P_H_I_C_S" data-name="G R A P H I C S"><rect x="106.399" y="14.708" width="128.714" height="92.059" transform="translate(-9.787 44.904) rotate(-14.568)" fill="#fff" opacity="0.2"/><polygon points="136.238 284.477 82.134 310.266 131.52 344.227 136.238 284.477" fill="#fff" opacity="0.2"/><circle cx="18.69" cy="123.706" r="18.69" fill="#fff"/><path d="M13.849,125.788a4.613,4.613,0,0,0,4.189,4.788v-6.284l-1.371-.274c-2.2-.449-3.741-1.746-3.741-4.115,0-2.569,1.92-4.314,5.112-4.364v-2.245H19.26v2.319a5.2,5.2,0,0,1,4.888,5.562l-1.421.124c-.05-2.469-1.322-4.04-3.467-4.439v6.21l1.048.2c2.718.549,4.164,1.646,4.164,4.14,0,2.669-2.194,4.29-5.212,4.414v2.295H18.038V131.8c-3.242-.274-5.586-2.344-5.586-5.885Zm3.74-3.067.449.1v-6.06c-2.369.049-3.641,1.172-3.641,3.092C14.4,121.624,15.544,122.322,17.589,122.721Zm1.671,1.82v6.085c2.195-.124,3.691-1.247,3.691-3.092,0-1.6-.923-2.444-3.142-2.893Z" fill="#febc11"/><circle cx="27.992" cy="288.087" r="15.54" fill="#fff" opacity="0.2"/><circle cx="447.279" cy="165.754" r="79.658" fill="#fff" opacity="0.2"/><circle cx="464.988" cy="284.28" r="23.638" fill="#fff" opacity="0.2"/><circle cx="111.18" cy="116.623" r="52.621" fill="#fff"/><circle cx="111.18" cy="116.623" r="22.52"/><path d="M100.414,156.664a2.5,2.5,0,0,1-1.99-.987c-.751-.986-.751-.986.983-7.244l6.7-24.173H89.832a2.5,2.5,0,0,1-2-4l32.115-42.679a2.5,2.5,0,0,1,4.436,2.058c-.013.058-.013.058-8.132,29.35h16.276a2.5,2.5,0,0,1,2,4l-32.116,42.678a2.5,2.5,0,0,1-1.991,1Z" fill="#febc11" fill-rule="evenodd"/><path d="M121.947,79.081l-8.981,32.405h19.563l-32.116,42.678,8.981-32.4H89.832l32.115-42.679m0-5h-.013a5,5,0,0,0-3.982,1.994L85.837,118.753a5,5,0,0,0,3.995,8.007H102.82L95.6,152.828a5,5,0,0,0,8.813,4.342l32.116-42.678a5,5,0,0,0-4-8.006H119.54l2.735-9.867,3.087-11.139,1.018-3.671c.585-2.112,1.048-3.781-.453-5.755a5,5,0,0,0-3.98-1.973Z" fill="#fff"/><circle cx="417.689" cy="78.351" r="42.002" fill="#fff"/><path d="M435.5,87.327,417.628,69.452l8.075-8.075a12.638,12.638,0,0,1,17.874,0h0a12.64,12.64,0,0,1,0,17.875Z" stroke="#fff" stroke-miterlimit="10" stroke-width="5"/><path d="M438.285,84.544h0a3.875,3.875,0,0,1-5.478,0h0L417.672,69.408h0l-8-8a12.638,12.638,0,0,0-17.874,0h0a12.64,12.64,0,0,0,0,17.875l8,8h0l.054.054.024.024h0l17.8,17.8Z" fill="#febc11" stroke="#fff" stroke-miterlimit="10" stroke-width="5"/><path d="M187.86,381.212l.371-2.826c4.713-35.944,7.685-66.023-.282-98.519-4.472-18.243-12.484-33.472-20.966-49.6-2.506-4.764-5.1-9.69-7.595-14.7a131.15,131.15,0,0,1-13.866-50.488A126.878,126.878,0,0,1,180.1,69.434a128.579,128.579,0,0,1,93.274-40.506h0A128.1,128.1,0,0,1,401.4,152.9l.061.633.836,12.536a37.658,37.658,0,0,0,3.367,13.263l19.446,42.323c1.756,3.028,3.505,9.627-2.048,13.792-2.315,1.736-5.4,2.307-8.392,2.858-6.076,1.122-8.551,2.018-8.551,6.44a17.594,17.594,0,0,0,1.971,7.99c.83,1.81,1.688,3.682.9,5.731-.682,1.768-2.337,3.079-5.714,4.527-3.794,1.626-3.981,2.837-3.983,2.849-.032.271.416.757.511.827.6.487,5.188,4.363,5.18,9.28a8.341,8.341,0,0,1-3.448,6.585c-1.546,1.25-3,2.3-4.286,3.224-4.577,3.3-5.5,4.22-4.859,6.489a59.5,59.5,0,0,0,2.841,8.131l.048.11c.138.336,3.35,8.314.32,15.055a13.7,13.7,0,0,1-8.436,7.334c-4.445,1.552-10.049,2.108-15.982,2.7-12.02,1.192-25.643,2.544-36.632,12-8.4,7.225-11.928,32.275-12.58,41.317l-.168,2.32H187.86Z"/><path d="M273.372,31.428A125.6,125.6,0,0,1,398.925,153.677l.045.022.836,12.536a40.292,40.292,0,0,0,3.59,14.141l19.5,42.438s3.987,6.646-1.329,10.633-17.943.665-17.943,11.3,7.974,11.962-1.33,15.95-3.987,7.975-3.987,7.975,8.175,6.654,1.66,11.92-11.5,6.93-9.979,12.336a60.963,60.963,0,0,0,2.982,8.512s6.025,14.66-6.627,19.079-36.149.3-53.421,15.162c-11.034,9.5-13.443,43.033-13.443,43.033H190.709c4.486-34.209,7.9-65.88-.332-99.44-5.907-24.1-17.972-43.176-28.75-64.82a129.373,129.373,0,0,1-13.609-49.529c-4.5-72.631,53.645-133.5,125.354-133.495m0-5A128.958,128.958,0,0,0,220.74,37.56a131.74,131.74,0,0,0-69.857,74.257,129.346,129.346,0,0,0-7.855,53.415,133.628,133.628,0,0,0,14.123,51.449c2.51,5.04,5.107,9.977,7.619,14.753,8.409,15.985,16.351,31.083,20.751,49.028,7.864,32.076,4.909,61.919.231,97.6l-.741,5.65H324.132l.334-4.642c.881-12.17,4.841-33.685,11.716-39.6,10.392-8.941,23.6-10.251,35.249-11.407,6.085-.6,11.834-1.175,16.56-2.824a16.316,16.316,0,0,0,9.891-8.669c3.407-7.581.1-16.087-.288-17.032l-.047-.112-.052-.111a58.066,58.066,0,0,1-2.7-7.745,2.043,2.043,0,0,1-.088-.462c.338-.68,2.452-2.2,4-3.321,1.311-.944,2.8-2.014,4.4-3.308a10.759,10.759,0,0,0,4.376-8.524c.007-4.5-2.86-8.1-4.7-9.95a16.149,16.149,0,0,1,1.474-.714c2.972-1.274,5.884-2.873,7.061-5.924,1.17-3.032-.01-5.6-.957-7.672a15.031,15.031,0,0,1-1.744-6.949c0-2.136,0-2.78,6.5-3.982,3.119-.575,6.654-1.228,9.438-3.316a11.644,11.644,0,0,0,4.6-11.572,16.724,16.724,0,0,0-1.817-5.342L407.94,178.288A35.16,35.16,0,0,1,404.8,165.9l-.836-12.536-.078-1.171A130.6,130.6,0,0,0,273.372,26.428Z" fill="#febc11"/><circle cx="33.229" cy="199.625" r="31.658" fill="#fff"/><polygon points="51.411 210.258 39.025 210.258 39.025 196.855 51.411 199.665 51.411 210.258" fill="#febc11"/><polygon points="42.627 200.736 42.627 206.758 47.809 206.758 47.809 201.912 42.627 200.736"/><polygon points="37.785 183.453 37.785 210.258 16.588 210.258 16.588 193.018 37.785 183.453" fill="#febc11"/><polygon points="39.73 180.619 13.762 192.337 13.762 194.328 39.73 182.609 39.73 180.619"/><rect x="29.02" y="192.266" width="5.182" height="4.092"/><rect x="29.02" y="200.534" width="5.182" height="6.225"/><polygon points="20.491 194.605 20.491 196.358 25.672 196.358 25.672 192.266 20.491 194.605"/><polygon points="52.697 197.951 39.025 194.849 39.025 196.863 52.697 199.965 52.697 197.951"/><rect x="20.491" y="201.678" width="5.182" height="8.828" fill="#fff"/><line x1="13.762" y1="213.785" x2="52.697" y2="213.785" fill="none" stroke="#000" stroke-miterlimit="10" stroke-width="3"/><circle cx="150.369" cy="247.147" r="50.715" fill="#fff"/><polygon points="115.815 221.182 140.457 221.182 163.38 261.243 138.738 261.243 115.815 221.182" stroke="#fff" stroke-miterlimit="10" stroke-width="5"/><polygon points="184.923 221.182 160.281 221.182 137.358 261.243 162 261.243 184.923 221.182" fill="#febc11" stroke="#fff" stroke-miterlimit="10" stroke-width="5"/><circle cx="150.369" cy="262.348" r="17.536" fill="#febc11" stroke="#fff" stroke-miterlimit="10" stroke-width="5"/><polygon points="153.877 263.409 159.552 259.286 152.537 259.286 150.369 252.614 148.201 259.286 141.186 259.286 146.861 263.409 144.694 270.081 150.369 265.958 156.044 270.081 153.877 263.409" fill="#fff"/><circle cx="513.93" cy="98.5" r="29.032" transform="translate(80.877 392.254) rotate(-45)" fill="#fff"/><g clip-path="url(#clip-path)"><path d="M501.752,96.2a7.886,7.886,0,1,1,7.886-7.885A7.894,7.894,0,0,1,501.752,96.2Z" fill="#febc11"/><path d="M501.752,81.924a6.386,6.386,0,1,1-6.385,6.386,6.386,6.386,0,0,1,6.385-6.386m0-3a9.386,9.386,0,1,0,9.386,9.386,9.4,9.4,0,0,0-9.386-9.386Z" fill="#fff"/><path d="M497.759,88.647a10.846,10.846,0,0,1-2.58-.32l-1.438-.352.333-1.442a7.874,7.874,0,0,1,12.237-4.652l1.207.857-.841,1.219A10.846,10.846,0,0,1,497.759,88.647Z"/><path d="M501.752,81.924a6.354,6.354,0,0,1,3.69,1.18,9.271,9.271,0,0,1-9.906,3.766,6.383,6.383,0,0,1,6.216-4.946m0-3a9.337,9.337,0,0,0-9.139,7.271l-.666,2.885,2.875.7a12.273,12.273,0,0,0,13.089-4.975l1.683-2.437-2.415-1.714a9.331,9.331,0,0,0-5.427-1.734Z" fill="#fff"/><path d="M526.174,101.335c-5.956,0-9.833,2.156-12.244,5.663-2.411-3.507-6.287-5.663-12.243-5.663-12.239,0-15.7,9.1-15.7,20.328s7.029,20.328,15.7,20.328c4.951,0,9.366-2.969,12.243-7.605,2.878,4.636,7.293,7.605,12.244,7.605,8.671,0,15.7-9.1,15.7-20.328S538.413,101.335,526.174,101.335Z" stroke="#febc11" stroke-miterlimit="10" stroke-width="3"/><ellipse cx="513.931" cy="130.049" rx="9.757" ry="12.633" fill="#febc11"/><path d="M513.93,113.753a6.844,6.844,0,1,1,6.845-6.844A6.852,6.852,0,0,1,513.93,113.753Z" fill="#febc11"/><path d="M513.93,101.565a5.344,5.344,0,1,1-5.344,5.344,5.345,5.345,0,0,1,5.344-5.344m0-3a8.344,8.344,0,1,0,8.345,8.344,8.354,8.354,0,0,0-8.345-8.344Z" fill="#fff"/><path d="M526.174,96.2a7.886,7.886,0,1,1,7.886-7.885A7.895,7.895,0,0,1,526.174,96.2Z" fill="#febc11"/><path d="M526.174,81.924a6.386,6.386,0,1,1-6.386,6.386,6.386,6.386,0,0,1,6.386-6.386m0-3a9.386,9.386,0,1,0,9.386,9.386,9.4,9.4,0,0,0-9.386-9.386Z" fill="#fff"/><path d="M522.181,88.647a10.846,10.846,0,0,1-2.58-.32l-1.438-.352.333-1.442a7.873,7.873,0,0,1,12.236-4.652l1.207.857-.841,1.219A10.842,10.842,0,0,1,522.181,88.647Z"/><path d="M526.174,81.924a6.354,6.354,0,0,1,3.69,1.18,9.273,9.273,0,0,1-9.907,3.766,6.385,6.385,0,0,1,6.217-4.946m0-3a9.338,9.338,0,0,0-9.14,7.271l-.666,2.885,2.876.7a12.272,12.272,0,0,0,13.088-4.975l1.683-2.437L531.6,80.658a9.328,9.328,0,0,0-5.426-1.734Z" fill="#fff"/></g><circle cx="274.665" cy="148.336" r="66.655" fill="#febc11"/><path d="M274.7,212.491a64.487,64.487,0,0,1-59.311-39.667l31.767-18.341,19.275,11.129,36.725-21.2,33.789,19.509A64.533,64.533,0,0,1,274.7,212.491Z"/><path d="M303.157,147.3l30.88,17.829A61.679,61.679,0,0,1,274.7,209.991a61.682,61.682,0,0,1-56.132-36.116l28.588-16.5,16.775,9.685,2.5,1.444,2.5-1.444L303.157,147.3m0-5.773-36.725,21.2L247.157,151.6l-34.883,20.14A66.671,66.671,0,0,0,339.8,162.681l-36.646-21.158Z" fill="#febc11"/><line x1="269.656" y1="109.307" x2="269.656" y2="125.048" fill="#febc11"/><line x1="269.656" y1="109.307" x2="269.656" y2="125.048" fill="#febc11"/><line x1="247.254" y1="160.411" x2="247.254" y2="116.444" fill="#fff" stroke="#000" stroke-miterlimit="10" stroke-width="5"/><polygon points="282.776 125.375 265.433 132.512 265.433 116.772 282.776 109.635 282.776 125.375" fill="#fff"/><polygon points="269.656 125.048 252.313 132.185 252.313 116.444 269.656 109.307 269.656 125.048" fill="#fff"/><polygon points="265.433 126.786 269.656 125.048 265.433 132.512 265.433 126.786"/><circle cx="461.445" cy="160.067" r="27.406" fill="#fff"/><path d="M454.347,163.121c.146,4.132,2.633,6.582,6.143,7.021v-9.215l-2.011-.4c-3.218-.658-5.485-2.56-5.485-6.033,0-3.767,2.816-6.327,7.5-6.4V144.8h1.792v3.4c4.5.585,7.168,3.51,7.168,8.155l-2.085.182c-.073-3.62-1.938-5.924-5.083-6.509v9.106l1.536.292c3.986.805,6.107,2.414,6.107,6.071,0,3.913-3.218,6.289-7.643,6.472v3.365H460.49v-3.4c-4.754-.4-8.191-3.438-8.191-8.63Zm5.485-4.5.658.146v-8.886c-3.474.073-5.339,1.719-5.339,4.534C455.151,157.014,456.833,158.038,459.832,158.623Zm2.45,2.669v8.923c3.218-.183,5.412-1.828,5.412-4.534,0-2.341-1.353-3.584-4.607-4.242Z" fill="#231f20"/><circle cx="502.862" cy="242.125" r="42.344" fill="#fff"/><circle cx="502.862" cy="242.125" r="22.833" fill="none" stroke="#febc11" stroke-miterlimit="10" stroke-width="3"/><circle cx="502.862" cy="242.125" r="14.512" fill="none" stroke="#000" stroke-miterlimit="10" stroke-width="3"/><circle cx="502.862" cy="242.125" r="6.192" fill="none" stroke="#febc11" stroke-miterlimit="10" stroke-width="3"/><line x1="502.862" y1="242.125" x2="527.365" y2="217.622" fill="none" stroke="#fff" stroke-linecap="round" stroke-miterlimit="10" stroke-width="3"/><polygon points="528 216.987 525.663 211.686 518.822 218.526 521.159 223.828 526.461 226.165 533.301 219.325 528 216.987" fill="#febc11" fill-rule="evenodd"/><line x1="519.323" y1="225.664" x2="529.098" y2="215.889" fill="none" stroke="#fff" stroke-miterlimit="10" stroke-width="3"/><rect x="484.749" y="19.506" width="23.843" height="23.843" transform="translate(123.249 360.404) rotate(-45)" fill="#fff" opacity="0.2"/></g></g></svg>